<?xml version="1.0" standalone="no"?>
<!DOCTYPE svg PUBLIC "-//W3C//DTD SVG 20010904//EN"
 "http://www.w3.org/TR/2001/REC-SVG-20010904/DTD/svg10.dtd">
<svg version="1.0" xmlns="http://www.w3.org/2000/svg"
 width="247.000000pt" height="219.000000pt" viewBox="0 0 247.000000 219.000000"
 preserveAspectRatio="xMidYMid meet">

<g transform="translate(0.000000,219.000000) scale(0.100000,-0.100000)"
fill="#000000" stroke="none">
<path d="M1035 1549 l-190 -49 -302 0 -303 0 0 -60 0 -60 318 0 317 1 190 48
191 48 184 -49 185 -48 323 0 322 0 0 60 0 60 -309 0 -309 0 -190 50 c-105 28
-201 50 -214 49 -12 0 -108 -23 -213 -50z"/>
<path d="M1770 995 l0 -255 60 0 60 0 0 195 0 196 128 -3 127 -3 3 -192 2
-193 60 0 60 0 0 255 0 255 -250 0 -250 0 0 -255z"/>
<path d="M240 990 l0 -250 60 0 60 0 0 195 0 195 258 -2 257 -3 3 -192 2 -193
60 0 60 0 2 193 3 192 250 0 250 0 3 -192 2 -193 60 0 60 0 0 250 0 250 -695
0 -695 0 0 -250z"/>
</g>
</svg>
