<?xml version="1.0" standalone="no"?>
<!DOCTYPE svg PUBLIC "-//W3C//DTD SVG 20010904//EN"
 "http://www.w3.org/TR/2001/REC-SVG-20010904/DTD/svg10.dtd">
<svg version="1.0" xmlns="http://www.w3.org/2000/svg"
 width="247.000000pt" height="219.000000pt" viewBox="0 0 247.000000 219.000000"
 preserveAspectRatio="xMidYMid meet">

<g transform="translate(0.000000,219.000000) scale(0.100000,-0.100000)"
fill="#000000" stroke="none">
<path d="M1065 1742 l-170 -45 -340 -6 -340 -6 -3 -62 -3 -63 323 0 323 0 191
47 191 47 199 -52 199 -52 310 2 310 3 3 63 3 62 -308 0 -308 0 -205 53 -205
54 -170 -45z"/>
<path d="M215 1417 c-3 -7 -4 -123 -3 -257 l3 -245 63 -3 62 -3 0 196 0 195
255 0 255 0 2 -192 3 -193 63 -3 62 -3 0 196 0 195 255 0 255 0 0 -195 0 -195
60 0 60 0 0 260 0 260 -695 0 c-553 0 -697 -3 -700 -13z"/>
<path d="M1742 1173 l3 -258 63 -3 62 -3 0 196 0 195 130 0 130 0 0 -195 0
-196 63 3 62 3 3 258 2 257 -260 0 -260 0 2 -257z"/>
<path d="M220 726 c0 -69 19 -95 21 -28 l1 37 15 -37 c9 -21 19 -38 23 -38 4
0 13 19 21 43 l14 42 3 -42 c2 -24 7 -43 13 -43 12 0 12 117 -1 125 -6 4 -20
-15 -32 -41 l-21 -48 -17 44 c-26 67 -40 63 -40 -14z"/>
<path d="M368 784 c-14 -14 -9 -92 8 -108 40 -41 86 -6 82 63 -4 61 -22 55
-26 -9 -3 -46 -5 -51 -25 -48 -19 3 -23 11 -27 56 -3 30 -8 50 -12 46z"/>
<path d="M498 779 c-29 -16 -22 -49 12 -60 17 -6 30 -17 30 -25 0 -17 -32 -18
-48 -2 -6 6 -14 9 -17 6 -9 -9 25 -38 44 -38 24 0 45 26 37 45 -3 8 -17 20
-31 25 -14 5 -25 16 -25 25 0 18 21 20 38 3 6 -6 15 -8 19 -4 5 4 -1 14 -11
22 -23 16 -25 17 -48 3z"/>
<path d="M587 783 c-4 -3 -7 -33 -7 -65 l0 -58 40 0 c22 0 40 5 40 10 0 6 -13
10 -30 10 -41 0 -43 37 -2 43 l27 4 -27 2 c-21 1 -28 6 -28 21 0 16 7 20 31
20 17 0 28 4 24 10 -7 11 -58 14 -68 3z"/>
<path d="M678 784 c-14 -14 -9 -92 8 -108 40 -41 86 -6 82 63 -4 61 -22 55
-26 -9 -3 -46 -5 -51 -25 -48 -19 3 -23 11 -27 56 -3 30 -8 50 -12 46z"/>
<path d="M815 779 c-9 -25 -2 -114 10 -112 6 1 12 17 15 35 l5 33 22 -37 c12
-21 27 -38 33 -38 13 0 13 117 0 125 -6 4 -10 -11 -10 -37 -1 -47 1 -48 -52
24 -14 20 -17 21 -23 7z"/>
<path d="M965 778 c-37 -103 -40 -118 -25 -118 6 0 10 7 10 15 0 21 40 19 56
-2 19 -26 18 1 -2 60 -17 50 -31 66 -39 45z m25 -60 c0 -5 -6 -8 -14 -8 -9 0
-12 7 -9 21 4 16 8 17 14 7 5 -7 9 -16 9 -20z"/>
<path d="M1062 774 c-19 -13 -22 -24 -20 -57 3 -35 7 -43 31 -51 21 -8 31 -6
44 7 20 20 10 35 -12 17 -24 -20 -45 -5 -45 35 0 41 25 59 45 32 15 -21 25
-22 25 -2 0 8 -9 19 -19 25 -25 13 -22 13 -49 -6z"/>
<path d="M1150 725 c0 -37 4 -65 10 -65 6 0 10 28 10 65 0 37 -4 65 -10 65 -6
0 -10 -28 -10 -65z"/>
<path d="M1210 770 c-24 -24 -26 -57 -4 -88 30 -44 84 -17 84 43 0 24 -7 39
-22 49 -29 20 -34 20 -58 -4z m55 -45 c0 -34 -4 -40 -22 -43 -27 -4 -41 35
-23 68 19 35 45 21 45 -25z"/>
<path d="M1317 783 c-11 -10 -8 -123 2 -123 6 0 11 19 13 43 l3 42 25 -42 c14
-24 30 -41 35 -40 6 2 10 29 10 60 0 65 -18 82 -23 23 l-3 -39 -25 41 c-27 45
-27 45 -37 35z"/>
<path d="M1455 756 c-9 -20 -18 -51 -21 -69 -5 -29 -4 -30 9 -14 18 21 57 23
57 2 0 -8 5 -15 10 -15 14 0 13 8 -6 66 -23 68 -31 73 -49 30z m23 -45 c-15
-5 -19 4 -11 24 6 18 7 18 13 -1 4 -10 3 -21 -2 -23z"/>
<path d="M1540 726 l0 -66 35 0 c19 0 35 5 35 10 0 6 -11 10 -25 10 -23 0 -25
3 -25 49 0 28 -4 53 -10 56 -6 4 -10 -18 -10 -59z"/>
<path d="M718 583 c283 -2 742 -2 1020 0 279 1 48 2 -513 2 -561 0 -789 -1
-507 -2z"/>
<path d="M217 523 c-15 -15 -7 -83 13 -103 23 -23 33 -24 61 -10 15 9 19 22
19 65 0 30 -4 55 -10 55 -5 0 -10 -20 -10 -44 0 -44 -19 -74 -40 -61 -5 3 -10
28 -10 56 0 46 -7 59 -23 42z"/>
<path d="M414 516 c-9 -25 1 -109 14 -114 7 -2 12 6 12 21 0 19 6 26 23 29 27
4 26 22 -3 26 -33 5 -24 32 11 32 17 0 28 4 24 10 -9 15 -75 12 -81 -4z"/>
<path d="M594 516 c-9 -25 1 -109 14 -114 7 -2 12 6 12 22 0 19 5 26 20 26 13
0 20 -7 20 -19 0 -11 4 -23 10 -26 13 -8 11 96 -2 113 -14 16 -67 15 -74 -2z
m61 -26 c0 -8 -8 -16 -17 -18 -13 -2 -18 3 -18 18 0 15 5 20 18 18 9 -2 17
-10 17 -18z"/>
<path d="M840 481 c0 -46 -18 -81 -28 -53 -4 14 -32 16 -32 2 0 -18 39 -31 60
-20 16 9 20 21 20 65 0 30 -4 55 -10 55 -5 0 -10 -22 -10 -49z"/>
</g>
</svg>
