<svg version="1.1" id="Layer_1" xmlns="http://www.w3.org/2000/svg" xmlns:xlink="http://www.w3.org/1999/xlink" x="0px" y="0px"
	 width="100%" viewBox="0 0 1080 1080" enable-background="new 0 0 1080 1080" xml:space="preserve">
<path fill="#FFFFFF" opacity="1.000000" stroke="none" 
	d="
M483.000000,1081.000000 
	C323.518341,1081.000000 164.536682,1080.985962 5.555100,1081.088135 
	C1.905589,1081.090454 0.896967,1080.433838 0.898158,1076.556030 
	C1.007801,719.597229 1.009890,362.638458 0.880673,5.679713 
	C0.879152,1.477035 1.911152,0.898114 5.819265,0.899302 
	C362.611389,1.007758 719.403503,1.007985 1076.195679,0.897173 
	C1080.134888,0.895950 1081.119019,1.523832 1081.117432,5.694650 
	C1080.990356,362.486755 1080.989014,719.278870 1081.125610,1076.071045 
	C1081.127319,1080.491455 1079.973022,1081.099487 1075.930054,1081.097168 
	C878.453369,1080.986084 680.976685,1081.000000 483.000000,1081.000000 
z"/>
<path fill="#90C08C" opacity="1.000000" stroke="none" 
	d="
M173.196991,605.887329 
	C172.428955,611.403748 171.767700,616.683594 170.434738,621.788025 
	C169.244766,626.345032 170.152420,629.122498 174.604813,631.333435 
	C181.607117,634.810425 181.468018,635.085754 186.157394,629.116577 
	C187.700165,627.152710 189.276535,625.214905 190.799316,623.235779 
	C195.461426,617.176758 198.782318,616.348633 205.690506,619.332642 
	C207.321823,620.037354 207.790436,621.183655 208.121613,622.742249 
	C209.089386,627.296997 210.010880,631.875916 211.313049,636.339600 
	C212.045303,638.849731 211.476151,642.173828 215.123825,643.329651 
	C216.318924,643.708313 215.846024,645.401123 215.847229,646.517273 
	C215.868637,666.345398 215.814804,686.173706 215.914658,706.001343 
	C215.929398,708.930481 215.221710,710.095093 212.033707,710.083435 
	C182.375214,709.975281 152.715775,709.938782 123.057808,710.101868 
	C118.691216,710.125916 119.252380,707.640503 119.253296,704.963440 
	C119.264458,672.305359 119.132812,639.646240 119.391716,606.990234 
	C119.432823,601.804810 117.950325,600.680481 112.986656,600.715088 
	C80.496773,600.942017 48.004177,600.759277 15.513575,600.926331 
	C11.322436,600.947876 9.810336,600.179077 9.833755,595.542969 
	C10.034069,555.887756 10.029499,516.230713 9.835345,476.575439 
	C9.812903,471.991821 11.248440,471.123749 15.496024,471.146362 
	C48.153183,471.320160 80.812134,471.161316 113.469215,471.342438 
	C117.968452,471.367401 119.395370,470.250000 119.366417,465.568268 
	C119.164482,432.911438 119.323570,400.252502 119.179924,367.595062 
	C119.161911,363.500122 119.771393,361.855957 124.531815,361.899780 
	C153.355133,362.165100 182.182693,362.120941 211.007187,361.930206 
	C215.106354,361.903076 215.974442,363.199768 215.938614,367.007416 
	C215.764618,385.500916 215.908310,403.997131 215.834274,422.491974 
	C215.812515,427.925110 211.346939,432.215179 211.608688,437.800476 
	C211.653839,438.764191 211.194611,439.742981 211.039597,440.726013 
	C209.679581,449.351349 208.641693,450.327332 200.058472,451.933533 
	C197.991043,452.320404 197.052917,451.338684 195.922821,449.994537 
	C192.493927,445.916260 188.758484,442.080505 185.528610,437.855133 
	C183.151001,434.744720 181.124557,434.949524 178.087509,436.869354 
	C171.019440,441.337341 170.935562,441.198486 172.888535,449.551483 
	C173.266953,451.170013 173.334030,452.923126 174.012543,454.399109 
	C177.128128,461.176727 174.678131,465.740845 169.005264,469.879517 
	C166.285461,471.863708 164.463989,472.453033 161.571625,470.680023 
	C157.888947,468.422638 153.780869,466.842743 150.169693,464.489655 
	C146.469620,462.078644 144.400345,463.203979 142.035980,466.444427 
	C136.761871,473.672729 136.621735,473.567078 142.251495,480.706268 
	C143.075836,481.751709 143.859024,482.829529 144.674881,483.881775 
	C150.987396,492.023438 151.017838,493.553101 145.768860,502.152649 
	C144.664917,503.961243 143.223083,504.014679 141.540619,504.013428 
	C136.541931,504.009613 131.528229,504.248444 126.549721,503.931641 
	C123.098412,503.712006 121.760490,505.091492 121.412956,508.273254 
	C121.161072,510.579346 120.712196,512.879456 120.149796,515.131897 
	C119.556213,517.509216 120.437714,518.805359 122.559555,519.861023 
	C126.581886,521.862122 130.397675,524.289795 134.464066,526.187073 
	C137.312744,527.516174 137.848953,529.467224 138.225113,532.408691 
	C139.150436,539.644226 137.213638,544.609680 129.690109,546.625000 
	C127.960754,547.088196 126.491425,548.470215 124.772873,549.035522 
	C120.226257,550.531128 119.281372,553.075623 120.597481,557.767395 
	C122.845787,565.782227 122.489059,565.882446 130.735977,565.965210 
	C131.902267,565.976868 133.068604,565.987000 134.234909,565.997437 
	C144.202484,566.086731 145.655457,567.225769 149.307266,576.601135 
	C150.117065,578.680115 149.118164,579.750122 148.156143,581.028992 
	C145.054031,585.152466 142.023605,589.341431 138.706604,593.287415 
	C136.712540,595.659668 136.925293,597.363708 138.719910,599.793518 
	C144.613968,607.773499 144.509827,607.851074 153.471024,603.617188 
	C154.073486,603.332642 154.670197,603.035706 155.267212,602.739746 
	C165.031219,597.900146 165.031143,597.899963 173.196991,605.887329 
z"/>
<path fill="#15386D" opacity="1.000000" stroke="none" 
	d="
M342.449585,600.705688 
	C340.161011,603.628296 340.389343,605.743713 342.698730,608.387695 
	C349.381927,616.039307 355.669861,624.034668 362.247650,631.780762 
	C363.819427,633.631714 364.045532,634.821960 362.303162,636.746399 
	C358.504578,640.942078 354.845093,645.285034 351.422699,649.791077 
	C349.653259,652.120728 348.197021,652.367188 345.601715,651.092590 
	C336.651367,646.696533 327.508759,642.691345 318.567230,638.278320 
	C315.910797,636.967346 314.137482,637.182556 311.978729,639.123840 
	C308.639954,642.126099 305.114868,644.948975 301.472229,647.575317 
	C299.211487,649.205383 298.865143,650.837097 299.510559,653.496826 
	C301.786072,662.875061 303.642639,672.354431 305.880157,681.742615 
	C306.591736,684.728333 305.775482,686.180542 303.026276,687.456299 
	C298.051941,689.764648 293.150299,692.296936 288.474030,695.154175 
	C285.842712,696.762024 284.599213,696.155273 282.820007,693.980042 
	C276.386139,686.114258 269.613434,678.524475 263.228027,670.620850 
	C261.237122,668.156616 259.307037,667.581238 256.389191,668.295227 
	C251.070084,669.596802 244.221924,668.751160 240.747498,672.294495 
	C237.497543,675.608948 237.434265,682.091309 236.078384,687.208618 
	C234.416428,693.481201 232.717331,699.751160 231.343216,706.089233 
	C230.761902,708.770569 229.312164,709.051453 227.092636,708.934265 
	C224.328674,708.788269 225.049286,706.763184 225.045914,705.275269 
	C225.004471,686.942688 225.147125,668.608337 224.919724,650.278442 
	C224.868256,646.130798 227.304657,646.711182 229.710754,646.606445 
	C280.034912,644.416138 317.492950,608.958862 330.354980,568.379578 
	C350.016693,506.347595 313.108398,439.658783 250.024307,424.425476 
	C243.231201,422.785065 236.298447,421.724365 229.274963,421.758850 
	C226.306747,421.773438 224.885925,421.171783 224.928680,417.598755 
	C225.140030,399.935242 225.001221,382.267700 225.068695,364.601929 
	C225.074020,363.206787 224.041519,361.062775 226.845352,360.785187 
	C229.595291,360.513000 229.598877,362.526459 229.948456,364.310181 
	C231.645386,372.968994 233.410278,381.615143 235.018951,390.290253 
	C235.600693,393.427368 236.466522,395.621552 240.246475,396.354980 
	C245.590103,397.391815 251.415161,401.527527 255.832916,400.234222 
	C260.535614,398.857574 263.870697,392.726746 267.741974,388.614319 
	C272.196564,383.882294 276.681580,379.172302 280.955383,374.279785 
	C282.777710,372.193634 284.178253,371.579620 286.742554,373.248871 
	C291.199341,376.150085 295.838989,378.812103 300.586609,381.208557 
	C303.301758,382.579132 303.497131,384.204010 302.804535,386.823303 
	C300.341217,396.139679 298.173035,405.534546 295.666931,414.838806 
	C294.966064,417.440979 295.257477,419.073517 297.478790,420.810699 
	C301.803802,424.193085 305.954620,427.820648 309.964142,431.574615 
	C311.975922,433.458130 313.504883,433.642883 316.027039,432.349487 
	C325.644135,427.417786 335.489624,422.930939 345.099060,417.985046 
	C347.716583,416.637848 348.861786,417.447968 350.378815,419.368774 
	C353.888306,423.812408 357.425720,428.253052 361.250061,432.421265 
	C363.308960,434.665375 363.094116,436.075775 361.172577,438.238892 
	C354.535828,445.710083 348.166992,453.418915 341.553406,460.911255 
	C339.682831,463.030334 339.142242,464.714783 340.686127,467.375031 
	C343.186310,471.683136 345.367126,476.202881 347.341064,480.780640 
	C348.600647,483.701782 350.426147,484.491974 353.486511,484.436890 
	C363.982788,484.247864 374.486725,484.479370 384.982727,484.283264 
	C387.963928,484.227570 389.117737,485.187836 389.526215,488.060852 
	C390.134949,492.342346 390.670319,496.728210 392.073151,500.780151 
	C394.036224,506.450470 391.873627,508.940094 386.788361,511.098206 
	C379.145050,514.341858 371.893585,518.497192 364.360931,522.019836 
	C361.693024,523.267517 360.755005,524.848877 360.896698,527.755798 
	C361.139832,532.743713 361.131195,537.760010 360.896912,542.748840 
	C360.768585,545.481323 361.666199,546.864014 364.173950,547.996033 
	C373.117371,552.033020 381.894928,556.438049 390.845032,560.459412 
	C393.305725,561.565063 393.901306,562.654541 393.157043,565.253418 
	C391.646698,570.527527 390.330841,575.876831 389.326385,581.268127 
	C388.805176,584.065613 387.465424,584.635254 384.937500,584.646301 
	C374.938995,584.690002 364.941101,585.009094 354.943268,584.995422 
	C352.271790,584.991760 350.692871,585.701355 349.468475,588.172363 
	C347.402130,592.342468 344.936066,596.314392 342.449585,600.705688 
z"/>
<path fill="#14376D" opacity="1.000000" stroke="none" 
	d="
M736.996887,368.902679 
	C751.528320,376.498047 757.815979,388.678497 757.268311,404.237000 
	C756.662170,421.455353 747.552307,432.653381 730.096130,438.128113 
	C735.172791,439.707123 739.329529,440.919250 743.202393,442.876190 
	C750.230652,446.427521 755.096619,451.953918 757.855530,459.204437 
	C767.470520,484.472748 754.334778,509.454041 728.125366,515.874817 
	C722.302368,517.301392 716.407776,518.073120 710.357849,518.018188 
	C694.207336,517.871521 678.053589,517.866394 661.903870,518.050964 
	C658.435608,518.090698 657.460022,517.186340 657.468445,513.664368 
	C657.584106,465.375824 657.546753,417.086945 657.537292,368.798126 
	C657.536865,366.458130 657.037476,364.246460 660.859131,364.294006 
	C680.170532,364.534271 699.485596,364.460175 718.797791,364.656097 
	C724.996155,364.718933 731.038025,365.919586 736.996887,368.902679 
z"/>
<path fill="#15376D" opacity="1.000000" stroke="none" 
	d="
M448.100708,377.016235 
	C448.100769,364.377106 448.101562,364.288910 460.155670,364.399200 
	C475.640411,364.540802 491.154449,363.618134 506.604126,364.949463 
	C522.636108,366.330933 536.918945,371.870148 544.250732,387.278046 
	C552.911987,405.479675 552.724243,424.178223 542.436279,441.847351 
	C534.197327,455.997345 520.432190,460.944489 504.852325,461.751068 
	C499.369354,462.034943 493.853363,462.081909 488.371124,461.830078 
	C485.002319,461.675293 484.254456,462.850098 484.286011,466.036835 
	C484.441071,481.691986 484.178528,497.352814 484.467590,513.004150 
	C484.547363,517.323975 483.224731,518.218933 479.190887,518.068665 
	C470.541748,517.746460 461.863586,517.741821 453.214874,518.069824 
	C449.104431,518.225769 447.982727,517.131104 447.998047,512.926758 
	C448.162506,467.789337 448.100586,422.651123 448.100708,377.016235 
z"/>
<path fill="#14376D" opacity="1.000000" stroke="none" 
	d="
M644.244141,390.762939 
	C627.309143,390.992157 610.613281,391.040344 593.454163,391.009003 
	C592.805969,390.833588 592.621033,390.737701 592.240967,390.885742 
	C592.007935,401.289795 592.082275,411.452301 591.865662,421.608612 
	C591.798523,424.756348 592.553467,425.772339 595.906982,425.722595 
	C610.063354,425.512543 624.227966,425.804871 638.382141,425.531189 
	C642.459534,425.452301 643.382202,426.750610 643.187866,430.534943 
	C642.880798,436.516083 642.908691,442.534119 643.190552,448.517883 
	C643.342407,451.741211 642.208191,452.342773 639.247620,452.312500 
	C624.923035,452.166016 610.594421,452.364380 596.271057,452.165527 
	C592.789795,452.117188 591.766296,453.026459 591.850159,456.552765 
	C592.091614,466.708588 592.073547,476.876801 591.855774,487.033691 
	C591.785278,490.321198 592.748352,491.173950 595.982056,491.140747 
	C611.972290,490.976532 627.967102,491.200500 643.955383,490.959778 
	C647.812378,490.901764 648.778381,492.040405 648.598206,495.714630 
	C648.296753,501.863556 648.336365,508.044586 648.578186,514.198486 
	C648.703186,517.378784 647.588318,518.047241 644.592346,518.035461 
	C616.606873,517.925232 588.620605,517.936951 560.635010,518.024658 
	C557.911072,518.033264 556.917236,517.436951 556.922791,514.478210 
	C557.013916,465.669617 557.008362,416.860718 556.936218,368.052063 
	C556.932129,365.298065 557.604187,364.309418 560.522583,364.320038 
	C587.841736,364.419647 615.161499,364.405304 642.480835,364.335663 
	C644.963745,364.329346 646.058960,364.848389 645.982788,367.623932 
	C645.772766,375.279144 645.841553,382.941956 645.393433,390.755005 
	C644.818970,390.799438 644.651123,390.690674 644.244141,390.762939 
z"/>
<path fill="#15376D" opacity="1.000000" stroke="none" 
	d="
M253.739349,471.101959 
	C245.604645,467.328613 237.424545,465.154144 228.845474,464.932220 
	C225.742371,464.851959 224.901291,463.860901 224.957397,460.858032 
	C225.131653,451.532501 225.203201,442.196503 224.934769,432.875488 
	C224.827484,429.150299 226.175522,428.438080 229.529846,428.649811 
	C263.264404,430.779358 290.246674,445.473511 309.440613,473.146149 
	C345.338257,524.901062 329.448059,595.206238 275.245667,626.465881 
	C260.846344,634.770203 245.217148,638.881226 228.637268,639.640991 
	C225.744034,639.773560 224.919037,638.859009 224.966995,636.014343 
	C225.124207,626.688171 225.169342,617.354431 224.949326,608.030823 
	C224.872665,604.781982 226.209671,604.282593 229.013290,604.060669 
	C262.104156,601.441223 287.584930,578.281799 293.376007,545.718750 
	C298.724121,515.646545 283.208099,486.220917 253.739349,471.101959 
z"/>
<path fill="#7E7C7D" opacity="1.000000" stroke="none" 
	d="
M654.524048,571.129028 
	C654.513062,569.648865 654.572510,568.643616 654.476440,567.653442 
	C654.213928,564.946045 654.003723,562.070618 650.306335,561.966125 
	C646.514832,561.859070 644.846130,564.350769 644.683960,567.644653 
	C644.397888,573.455383 644.336121,579.290649 644.515076,585.105408 
	C644.610657,588.211060 643.607727,589.231873 640.534790,589.007080 
	C637.932434,588.816650 635.719421,589.219055 635.859009,585.242920 
	C636.150818,576.931519 635.841797,568.600281 636.015930,560.282166 
	C636.048035,558.747192 634.241821,555.717834 637.889099,555.821777 
	C640.550110,555.897644 644.637451,554.020752 644.423340,559.568359 
	C651.945862,553.752136 652.666992,553.672119 661.393250,559.179749 
	C663.098816,560.256226 663.392029,558.914856 664.096619,558.267944 
	C667.474243,555.166809 671.271484,554.238586 675.603394,555.885010 
	C679.997559,557.554993 681.371155,561.310913 681.543457,565.443665 
	C681.827637,572.256714 681.607971,579.089294 681.799133,585.908081 
	C681.897705,589.426392 679.604553,588.950867 677.462646,588.934753 
	C675.356018,588.918884 673.005859,589.504761 673.103943,585.943481 
	C673.264221,580.122681 673.212891,574.292786 673.111877,568.469177 
	C673.059692,565.465454 673.125671,562.065430 668.782837,561.977356 
	C664.631287,561.893066 663.344421,564.967957 663.166504,568.278442 
	C662.872009,573.755676 662.817383,579.271973 663.121826,584.746216 
	C663.333801,588.556946 661.603943,588.893433 658.439148,589.064758 
	C654.684143,589.268005 654.396118,587.468689 654.487000,584.591919 
	C654.623474,580.268799 654.523193,575.938232 654.524048,571.129028 
z"/>
<path fill="#7E7C7D" opacity="1.000000" stroke="none" 
	d="
M895.278625,635.460083 
	C894.891846,632.272156 893.448364,630.712463 890.590271,630.974731 
	C887.385315,631.268738 885.863037,633.445496 885.747925,636.366394 
	C885.525391,642.014771 885.451599,647.679260 885.616211,653.328430 
	C885.708435,656.494873 885.260925,658.057312 881.416138,658.098999 
	C877.370483,658.143005 876.786255,656.563599 876.878174,653.101440 
	C877.090027,645.120789 876.878052,637.129639 876.985962,629.144775 
	C877.005249,627.719238 875.808716,625.306763 878.272217,625.040344 
	C880.532104,624.795898 883.281799,623.626221 885.148621,626.081360 
	C885.793518,626.929565 885.506531,628.287598 887.412476,627.273193 
	C895.862854,622.775757 897.058533,622.962280 903.494568,628.772644 
	C905.348816,627.152893 907.041443,625.346680 909.562866,624.594604 
	C915.094116,622.944580 920.528076,625.365906 921.860596,630.755920 
	C923.922363,639.095703 922.865051,647.659546 922.669250,656.102417 
	C922.591370,659.458740 918.944031,657.507874 916.932739,657.895142 
	C914.719543,658.321350 914.108154,656.981628 914.131287,654.945251 
	C914.199341,648.956299 914.177612,642.965698 914.130615,636.976257 
	C914.107239,634.005615 913.774658,631.065674 909.830933,630.969360 
	C906.050476,630.877014 904.384888,633.477051 904.187317,636.679749 
	C903.859924,641.984741 903.958130,647.323853 904.063354,652.644836 
	C904.126587,655.842896 904.360291,658.149353 899.633789,658.143799 
	C894.619568,658.137878 895.402100,655.341492 895.403442,652.381592 
	C895.405884,646.891479 895.357117,641.401367 895.278625,635.460083 
z"/>
<path fill="#7F7D7E" opacity="1.000000" stroke="none" 
	d="
M792.130615,657.949524 
	C787.455994,658.656006 785.872070,657.320618 786.027222,652.670288 
	C786.409851,641.203064 786.390137,629.707031 786.034363,618.237976 
	C785.891663,613.638428 787.428101,612.405701 791.688660,612.849976 
	C794.982056,613.193298 798.338562,612.886047 801.663757,612.980652 
	C808.863525,613.185364 812.572937,615.376526 814.019592,620.165771 
	C815.788818,626.023010 813.936035,630.239624 807.466309,634.512207 
	C810.272583,635.731812 812.865356,636.966003 814.271729,639.723633 
	C815.707947,642.539978 816.000732,645.447815 815.271057,648.449097 
	C813.894531,654.111877 808.644165,657.739441 801.592102,657.926575 
	C798.599365,658.006042 795.602905,657.945862 792.130615,657.949524 
z"/>
<path fill="#7E7C7D" opacity="1.000000" stroke="none" 
	d="
M515.922424,646.005615 
	C515.192383,642.105957 515.469482,638.653015 516.122314,635.177063 
	C518.091980,624.690369 529.302734,619.973572 537.522583,629.094666 
	C537.156250,623.847900 540.511902,624.812256 543.376038,624.818970 
	C545.049194,624.822876 545.729004,625.508667 545.707703,627.219177 
	C545.585449,637.047974 545.994080,646.908752 545.336731,656.699219 
	C544.480896,669.444397 536.409668,674.348022 522.790161,671.760193 
	C517.665466,670.786438 515.958557,668.577087 517.776245,663.463623 
	C523.188477,665.002441 528.816956,668.091125 534.249756,663.845581 
	C537.266235,661.488281 537.256592,657.909180 537.030273,654.144287 
	C526.359985,661.048096 518.937439,658.179077 515.922424,646.005615 
z"/>
<path fill="#7E7C7D" opacity="1.000000" stroke="none" 
	d="
M553.087463,603.092529 
	C550.329651,602.728149 548.004822,602.515015 545.748840,602.000061 
	C543.320435,601.445862 541.941162,597.411194 543.244873,595.275696 
	C544.057373,593.944824 544.943726,594.846924 545.792480,595.082520 
	C547.710693,595.614990 549.578613,596.450439 551.528625,596.725525 
	C559.491577,597.848877 563.508728,593.613770 562.448914,585.389709 
	C550.592102,594.130859 542.098022,585.389282 541.307129,574.953369 
	C541.090759,572.097107 541.352722,569.310486 541.923950,566.518250 
	C544.209961,555.343567 553.320862,551.895447 562.370178,558.942078 
	C564.194885,558.677490 562.961121,555.384949 565.700317,555.625244 
	C569.066650,555.920532 571.885376,555.221497 571.361389,560.720337 
	C570.574524,568.976440 571.217102,577.362183 571.105408,585.690796 
	C570.931641,598.648804 566.467041,603.021973 553.087463,603.092529 
z"/>
<path fill="#817F80" opacity="1.000000" stroke="none" 
	d="
M739.936829,570.196350 
	C739.922180,566.671143 740.792480,563.791931 742.204712,561.136841 
	C745.791321,554.393799 752.584656,553.440125 761.064575,558.883728 
	C761.064575,553.941162 761.286255,549.375122 760.993469,544.842346 
	C760.765503,541.313477 761.964417,540.342163 765.448547,540.321777 
	C769.168213,540.300049 769.805420,541.811951 769.770996,545.073669 
	C769.630554,558.389221 769.737732,571.707275 769.700806,585.024231 
	C769.697083,586.369202 770.619934,588.496460 768.455566,588.728882 
	C766.331543,588.957031 763.668701,590.164490 762.048340,587.792297 
	C761.215454,586.573059 761.244690,585.602051 759.339722,586.748718 
	C750.275574,592.204651 743.430237,589.260071 740.618958,579.063965 
	C739.844788,576.256042 740.029724,573.463318 739.936829,570.196350 
z"/>
<path fill="#7F7D7E" opacity="1.000000" stroke="none" 
	d="
M992.976868,635.999939 
	C992.977112,642.321228 993.019348,648.143005 992.950317,653.963562 
	C992.931091,655.582581 993.893616,657.696228 990.806030,658.007935 
	C987.038513,658.388306 985.749023,657.830200 984.638977,654.119080 
	C980.453003,658.284607 975.620483,660.112671 970.251038,657.202087 
	C964.817871,654.256958 963.426636,648.893250 963.216064,643.187805 
	C963.124634,640.710938 963.162292,638.168152 963.613098,635.742981 
	C965.691040,624.563965 973.994629,621.181824 984.311768,627.814392 
	C984.311768,622.896545 984.526550,618.319702 984.243835,613.773865 
	C984.017456,610.134155 985.475098,609.302612 988.855347,609.306702 
	C992.110413,609.310608 993.177246,610.193665 993.057983,613.548157 
	C992.798157,620.857178 992.977173,628.181763 992.976868,635.999939 
z"/>
<path fill="#7F7D7E" opacity="1.000000" stroke="none" 
	d="
M630.970093,654.736572 
	C630.594727,660.350708 626.721497,657.407410 624.475464,657.824829 
	C621.934387,658.296875 622.261047,656.007751 622.259033,654.389893 
	C622.241882,640.561401 622.349854,626.731567 622.167175,612.905457 
	C622.119629,609.309326 624.008057,609.273315 626.555603,609.379028 
	C628.877441,609.475403 631.267944,608.950256 631.041382,612.770264 
	C630.755981,617.581909 630.972534,622.423218 630.972534,627.253662 
	C632.786865,627.899841 633.272095,626.169678 634.298767,625.582031 
	C641.052368,621.716614 649.049255,625.176453 649.713867,632.858154 
	C650.358032,640.302979 650.005737,647.834106 650.089966,655.327332 
	C650.131775,659.044373 647.304565,657.755615 645.412292,657.932495 
	C643.374512,658.122986 641.365356,658.272339 641.425964,655.114441 
	C641.541199,649.119202 641.477600,643.119263 641.408203,637.122192 
	C641.371277,633.932495 640.862427,630.884277 636.661865,630.940430 
	C632.591858,630.994812 631.194153,633.867004 631.057800,637.274170 
	C630.831299,642.930115 630.977844,648.601074 630.970093,654.736572 
z"/>
<path fill="#828081" opacity="1.000000" stroke="none" 
	d="
M466.873840,619.710938 
	C465.734283,619.710999 465.067657,619.710938 464.401001,619.711792 
	C457.021332,619.720947 455.551880,621.740540 457.070129,629.243042 
	C457.450165,631.120972 458.494476,631.217712 459.876495,631.222229 
	C463.043030,631.232605 466.217499,631.365540 469.373749,631.185791 
	C472.092804,631.031006 472.751343,632.226074 472.781921,634.722717 
	C472.814941,637.420471 471.712982,638.289490 469.199768,638.074036 
	C467.710754,637.946350 466.201874,638.049927 464.701935,638.049805 
	C457.125061,638.049316 457.076538,638.049683 457.119232,643.828064 
	C457.182648,652.407471 456.059479,651.042114 464.573059,651.174683 
	C466.572571,651.205750 468.579254,651.286621 470.571198,651.161987 
	C473.031830,651.008057 474.216400,651.735352 474.170349,654.494141 
	C474.128296,657.015320 473.434967,658.071350 470.755585,658.009094 
	C464.425873,657.861755 458.088684,657.875671 451.758118,658.003113 
	C449.253326,658.053528 448.167145,657.350647 448.188232,654.652100 
	C448.288483,641.820007 448.283051,628.986328 448.202972,616.153992 
	C448.186859,613.573730 449.096497,612.594482 451.693115,612.647949 
	C457.523773,612.768066 463.359192,612.730896 469.191498,612.659607 
	C471.703369,612.628906 473.693329,612.561890 473.725647,616.149780 
	C473.757233,619.655273 471.973999,619.954407 469.345947,619.721313 
	C468.684448,619.662659 468.013428,619.711731 466.873840,619.710938 
z"/>
<path fill="#7E7C7D" opacity="1.000000" stroke="none" 
	d="
M447.987610,546.234253 
	C448.292358,545.200439 448.574127,544.167053 448.881897,544.159241 
	C455.501587,543.991394 462.240143,542.876587 468.669128,545.089172 
	C474.627960,547.139954 477.517548,553.207581 476.408356,560.159424 
	C475.399994,566.479370 471.055878,570.510376 464.648529,571.071716 
	C456.891510,571.751343 456.891510,571.751404 456.891998,579.638306 
	C456.892090,580.968933 456.895325,582.299561 456.891754,583.630188 
	C456.878601,588.568909 454.015472,590.535156 449.408600,588.865845 
	C447.057831,588.014038 448.032135,586.080627 448.022675,584.635071 
	C447.939819,571.994629 447.975922,559.353394 447.987610,546.234253 
z"/>
<path fill="#818081" opacity="1.000000" stroke="none" 
	d="
M483.237183,657.934814 
	C480.069580,657.181641 481.189240,654.947998 481.166534,653.347168 
	C481.050873,645.184021 481.129791,637.018372 481.061005,628.854248 
	C481.042145,626.614319 480.686462,624.673462 484.111450,624.645691 
	C488.476135,624.610107 488.473938,624.339661 489.325348,628.376465 
	C491.014252,628.241882 491.548981,626.557312 492.790527,625.790344 
	C499.174713,621.846313 507.110718,624.720764 508.398285,631.959473 
	C509.803406,639.859131 508.970673,647.918884 508.844910,655.899109 
	C508.789825,659.394165 505.548218,657.586792 503.715179,657.914124 
	C501.708252,658.272522 500.170471,657.845764 500.228851,655.134949 
	C500.354431,649.305847 500.316742,643.471252 500.235077,637.640442 
	C500.189453,634.382202 500.029388,630.884888 495.471130,630.970947 
	C491.117310,631.053162 490.018860,634.200378 489.936401,637.842834 
	C489.830780,642.506104 489.495087,647.212708 489.969147,651.827576 
	C490.498444,656.980042 488.716309,658.910645 483.237183,657.934814 
z"/>
<path fill="#7F7D7E" opacity="1.000000" stroke="none" 
	d="
M595.638367,646.005493 
	C595.639404,648.658203 595.526367,650.828674 595.668823,652.982300 
	C595.879089,656.158630 595.640808,658.158325 591.339783,658.125549 
	C587.080383,658.093018 586.927185,656.157532 586.987793,652.940979 
	C587.135071,645.123962 586.947754,637.300720 587.088440,629.483459 
	C587.117920,627.846680 585.605591,625.090698 589.030212,624.878296 
	C591.801208,624.706482 595.182129,623.694946 595.374939,628.543213 
	C597.597107,627.080872 599.059021,625.256897 601.411011,624.573853 
	C607.352539,622.848511 612.753052,625.531860 614.122131,631.535156 
	C615.954590,639.570312 614.802917,647.775574 614.826233,655.898254 
	C614.836243,659.393677 611.557556,657.602722 609.730286,657.913513 
	C607.792053,658.243164 606.101746,657.956421 606.145691,655.212463 
	C606.239136,649.390747 606.192810,643.566162 606.146912,637.743164 
	C606.121277,634.495850 606.125549,631.023865 601.566650,630.945374 
	C597.233459,630.870667 595.942383,633.860474 595.737488,637.532532 
	C595.589294,640.187134 595.663574,642.854187 595.638367,646.005493 
z"/>
<path fill="#7E7C7D" opacity="1.000000" stroke="none" 
	d="
M504.951874,573.826660 
	C503.780914,557.382080 516.520325,552.937622 525.771484,555.996887 
	C534.050110,558.734558 538.033264,569.104248 534.728943,579.499573 
	C532.571045,586.288452 526.273193,590.274109 518.835266,589.558167 
	C510.190796,588.726074 505.793365,583.883301 504.951874,573.826660 
z"/>
<path fill="#7F7D7E" opacity="1.000000" stroke="none" 
	d="
M600.305542,578.338318 
	C601.908386,569.860596 608.507324,569.418823 614.773743,568.266052 
	C616.629028,567.924744 620.134094,569.977295 619.979553,565.903687 
	C619.841248,562.257935 617.093933,561.069031 613.711121,560.943298 
	C610.410461,560.820740 607.650452,562.477783 604.605652,563.506531 
	C602.796875,558.786804 604.399109,556.498352 609.275635,555.756836 
	C612.089661,555.329041 614.850403,554.876709 617.673767,555.223633 
	C624.732971,556.090820 627.674927,559.000977 628.099304,566.159607 
	C628.501892,572.950317 628.479614,579.765808 628.674927,586.569458 
	C628.705505,587.634033 628.681763,588.757996 627.389221,588.803589 
	C625.318176,588.876709 622.133545,589.997192 621.412415,588.127625 
	C619.994934,584.452759 618.869019,586.637207 617.312866,587.573364 
	C609.255310,592.420593 601.082520,588.163025 600.305542,578.338318 
z"/>
<path fill="#817F80" opacity="1.000000" stroke="none" 
	d="
M734.909790,640.855469 
	C738.750732,638.100830 742.890930,637.742126 747.024780,637.235107 
	C748.573364,637.045166 751.123413,638.280212 751.253174,635.284241 
	C751.367981,632.633179 749.770935,630.887756 747.273254,630.246399 
	C744.980591,629.657837 742.645752,629.937134 740.410645,630.767151 
	C738.890564,631.331665 737.382996,631.930176 735.857300,632.518311 
	C733.903748,627.729980 735.718506,625.601013 740.291443,624.794861 
	C743.435364,624.240601 746.534912,623.835510 749.687561,624.315369 
	C755.994751,625.275269 759.225586,628.506287 759.550720,634.885681 
	C759.897156,641.684387 759.763306,648.507629 759.840637,655.320129 
	C759.851807,656.300171 760.061401,657.558777 758.778442,657.741699 
	C756.682739,658.040405 753.426331,658.939453 752.700012,657.241089 
	C751.003052,653.273254 749.661804,656.002380 748.122742,656.872620 
	C743.266357,659.618530 737.386597,658.881104 733.948975,655.067139 
	C730.522217,651.265198 730.774719,645.936523 734.909790,640.855469 
z"/>
<path fill="#817F80" opacity="1.000000" stroke="none" 
	d="
M1059.783691,630.035400 
	C1055.946045,629.703125 1052.984253,631.311951 1049.910522,632.615845 
	C1047.841431,627.881592 1049.503052,625.654175 1054.107178,624.857300 
	C1056.572510,624.430664 1058.996460,623.970581 1061.511230,624.116638 
	C1069.645508,624.588928 1073.309692,628.110168 1073.631348,636.243652 
	C1073.861206,642.054138 1073.787964,647.879700 1073.717529,653.696899 
	C1073.699951,655.148865 1074.879150,657.526001 1072.376343,657.762756 
	C1070.325806,657.956787 1067.448608,659.328979 1066.199463,656.459717 
	C1065.283325,654.355164 1064.562866,654.956482 1063.389160,655.940613 
	C1061.687500,657.367371 1059.686646,658.152954 1057.505493,658.443176 
	C1051.948975,659.182556 1047.033569,655.949219 1045.752319,650.750610 
	C1044.487183,645.617310 1047.027710,641.014404 1052.345093,638.930115 
	C1055.156860,637.827942 1058.142334,637.583862 1061.117188,637.238037 
	C1062.581909,637.067688 1064.794189,638.112427 1065.257935,635.695618 
	C1065.630615,633.754028 1064.604858,632.102295 1062.954102,631.049805 
	C1062.151123,630.537903 1061.120605,630.382874 1059.783691,630.035400 
z"/>
<path fill="#7E7C7D" opacity="1.000000" stroke="none" 
	d="
M839.927979,645.129578 
	C838.779236,632.844360 842.994385,625.942139 852.368225,624.303833 
	C861.499329,622.707886 869.007690,628.126160 870.234436,637.321533 
	C870.518005,639.446655 870.561462,641.646790 870.379517,643.783752 
	C869.595093,652.998596 864.612915,658.037415 855.963806,658.546387 
	C847.400330,659.050293 841.863953,654.548157 839.927979,645.129578 
z"/>
<path fill="#818081" opacity="1.000000" stroke="none" 
	d="
M930.215332,634.493469 
	C931.887024,629.845764 934.464417,626.499207 938.893860,624.976135 
	C943.782715,623.295166 948.481567,623.745850 952.493591,627.152100 
	C956.965332,630.948730 957.602600,636.288513 957.617981,641.718872 
	C957.624329,643.966980 955.789795,643.671936 954.324097,643.678223 
	C949.829956,643.697510 945.331665,643.802979 940.842896,643.647583 
	C937.397034,643.528442 937.373596,645.396912 938.139709,647.783875 
	C939.420532,651.774475 944.297913,653.162903 950.694153,652.085022 
	C952.168396,651.836609 954.484924,648.208923 955.715820,652.301392 
	C956.829773,656.005310 954.422363,657.144592 951.317078,657.873291 
	C935.714478,661.534729 926.439148,651.522217 930.215332,634.493469 
z"/>
<path fill="#818081" opacity="1.000000" stroke="none" 
	d="
M552.077148,641.937439 
	C552.386902,635.489075 553.719177,629.927612 559.165649,626.349121 
	C563.905701,623.234863 570.247192,623.311096 574.644470,626.496643 
	C579.845337,630.264282 580.363647,635.947693 580.613342,641.660583 
	C580.711121,643.898071 578.888916,643.674622 577.395325,643.677185 
	C573.406189,643.684021 569.411560,643.561401 565.430603,643.742981 
	C563.834229,643.815857 561.321594,642.574097 560.862793,645.250793 
	C560.449768,647.661133 561.583374,649.870972 563.831055,651.120117 
	C567.088867,652.930664 570.547791,652.244934 574.044739,651.928162 
	C575.495667,651.796753 577.588196,648.335022 578.655029,652.228699 
	C579.514160,655.364075 578.109802,656.950073 574.874207,657.754517 
	C561.935547,660.971436 553.340637,655.267944 552.077148,641.937439 
z"/>
<path fill="#7F7D7E" opacity="1.000000" stroke="none" 
	d="
M667.624268,658.471619 
	C659.876648,657.869507 656.256592,654.867493 655.944946,649.148987 
	C655.608704,642.978638 658.980652,639.306702 666.204407,638.037598 
	C668.000000,637.722168 669.848206,637.657593 671.613708,637.234009 
	C673.115295,636.873840 675.756348,638.497192 675.834045,635.414307 
	C675.891785,633.122437 674.591980,631.238647 672.321960,630.460388 
	C669.164429,629.377747 666.107300,630.169128 663.090942,631.279602 
	C661.900391,631.717896 660.297729,633.400940 659.731873,630.646240 
	C659.375732,628.912415 658.623413,626.941833 661.101929,626.012756 
	C667.038696,623.787415 673.077515,622.883301 678.917114,625.995544 
	C683.980469,628.694092 683.924500,633.787048 683.974609,638.654663 
	C684.025818,643.637024 684.116638,648.623535 683.954956,653.600586 
	C683.906494,655.093262 685.459106,657.698303 682.323486,657.869995 
	C679.731384,658.011841 676.292297,659.224365 675.950378,654.216309 
	C673.339478,656.174744 671.094177,658.189392 667.624268,658.471619 
z"/>
<path fill="#7F7D7E" opacity="1.000000" stroke="none" 
	d="
M706.479126,563.892822 
	C701.416382,558.318420 696.520142,561.915771 691.513428,563.487366 
	C689.870850,558.881836 691.328186,556.471252 696.256714,555.759583 
	C699.069336,555.353394 701.832153,554.866211 704.660645,555.230835 
	C711.883179,556.161743 714.878967,559.384277 715.105713,566.724426 
	C715.295593,572.866333 715.277588,579.014709 715.337830,585.160400 
	C715.350769,586.482422 716.696411,588.451416 714.313477,588.779114 
	C712.304199,589.055603 709.103699,590.026306 708.369629,588.078369 
	C706.940002,584.284790 705.773865,586.675476 704.283264,587.581970 
	C699.704224,590.366699 694.629395,590.190552 690.792664,587.067383 
	C687.085938,584.049988 686.500977,580.133423 687.876587,575.808655 
	C689.207153,571.625427 692.737915,570.094788 696.554688,569.212463 
	C698.965698,568.655029 701.483704,568.311951 703.952942,568.316406 
	C707.185791,568.322205 707.597473,566.825500 706.479126,563.892822 
z"/>
<path fill="#7F7D7E" opacity="1.000000" stroke="none" 
	d="
M793.992798,583.279297 
	C796.220398,582.971985 798.010864,582.649902 799.808105,582.371521 
	C800.867798,582.207458 802.405396,580.374878 802.809448,582.813721 
	C803.081116,584.453064 804.050232,586.846375 801.842285,587.736572 
	C795.915833,590.125977 789.775024,590.714844 783.991638,587.441223 
	C777.549316,583.794556 775.764160,577.591125 776.376099,570.740112 
	C776.967468,564.117920 779.534790,558.440369 786.398499,555.942688 
	C791.343445,554.143372 796.102539,554.955566 799.954041,558.375244 
	C804.086243,562.044067 804.973938,567.199707 804.897461,572.529846 
	C804.864197,574.845154 803.168274,574.587097 801.702637,574.598755 
	C797.705994,574.630432 793.703918,574.496033 789.714478,574.668823 
	C788.087891,574.739319 785.641052,573.540771 785.018921,576.047974 
	C784.408997,578.505981 785.814148,580.553162 787.804260,582.034546 
	C789.510864,583.304932 791.553467,583.262512 793.992798,583.279297 
z"/>
<path fill="#7F7D7E" opacity="1.000000" stroke="none" 
	d="
M483.814301,706.713013 
	C485.231079,694.973755 489.656616,689.485718 498.068207,688.679871 
	C504.836700,688.031433 510.325897,690.959778 512.878113,697.227966 
	C516.595154,706.356812 516.659790,715.731873 513.180908,724.937927 
	C510.677429,731.562988 505.767517,734.626343 498.917084,734.428711 
	C492.345490,734.239258 488.093933,730.700317 485.729034,724.784180 
	C483.460052,719.107971 483.131317,713.167603 483.814301,706.713013 
z"/>
<path fill="#817F80" opacity="1.000000" stroke="none" 
	d="
M709.468872,692.623169 
	C714.470825,700.813110 712.750000,706.881958 704.760498,711.279602 
	C710.174377,717.246704 711.106018,725.236023 713.985779,732.331726 
	C714.354858,733.240967 713.906250,733.904968 712.829834,734.005981 
	C711.392822,734.140808 710.309753,733.931335 709.745300,732.272156 
	C708.354248,728.182739 706.813721,724.143311 705.288452,720.100769 
	C704.702576,718.547974 704.186035,716.918579 703.302551,715.538879 
	C701.484131,712.699097 698.437012,712.711121 695.657471,713.159546 
	C692.580627,713.656006 694.158386,716.408447 694.059143,718.099915 
	C693.815613,722.250916 694.010315,726.426147 693.968201,730.591064 
	C693.952576,732.133301 694.565857,734.121643 691.791016,734.040710 
	C689.503418,733.973999 689.666260,732.349304 689.663635,730.879089 
	C689.640808,718.049927 689.684692,705.220520 689.615112,692.391724 
	C689.601379,689.861877 690.444397,688.754395 693.094055,688.925659 
	C698.644836,689.284546 704.556458,687.799377 709.468872,692.623169 
z"/>
<path fill="#828081" opacity="1.000000" stroke="none" 
	d="
M653.333740,694.277588 
	C653.262390,703.396118 653.393188,712.057983 653.027222,720.698853 
	C652.654907,729.489502 648.237976,734.032898 640.377930,734.469543 
	C632.673645,734.897461 627.835266,730.660278 626.792664,721.765137 
	C625.628235,711.830566 626.559875,701.814148 626.319641,691.836914 
	C626.279419,690.166199 626.578369,688.844727 628.728821,688.958069 
	C631.016174,689.078613 630.759033,690.740662 630.762939,692.207092 
	C630.783813,700.030579 630.752014,707.854187 630.790833,715.677490 
	C630.802429,718.004517 630.771606,720.363892 631.129700,722.650635 
	C631.966553,727.994202 634.811218,730.412231 639.838379,730.386597 
	C645.071167,730.359924 647.811279,728.251160 648.623413,722.789185 
	C649.852051,714.525818 648.929688,706.172180 649.159546,697.861450 
	C649.196350,696.530762 648.987671,695.168457 649.206238,693.873779 
	C649.512329,692.060791 647.800415,688.845642 651.515259,689.062805 
	C654.686890,689.248230 652.803955,692.163635 653.333740,694.277588 
z"/>
<path fill="#7F7D7E" opacity="1.000000" stroke="none" 
	d="
M1032.475098,630.721436 
	C1026.895752,633.542175 1024.877686,639.696533 1027.011353,646.216248 
	C1028.563110,650.958069 1032.364746,652.729553 1038.739746,651.688721 
	C1039.919556,651.496094 1041.531494,650.370728 1041.793335,652.628113 
	C1042.006470,654.467712 1043.001221,656.927979 1040.234375,657.690735 
	C1031.746094,660.030823 1020.297852,657.944580 1017.925537,646.356384 
	C1014.910278,631.627930 1025.012817,621.149353 1038.667725,624.610168 
	C1041.979736,625.449707 1041.928223,627.219666 1041.583252,629.655945 
	C1041.135986,632.814880 1039.162964,630.723755 1037.822388,630.728455 
	C1036.179321,630.734253 1034.536011,630.656860 1032.475098,630.721436 
z"/>
<path fill="#818081" opacity="1.000000" stroke="none" 
	d="
M553.597778,717.996033 
	C553.592468,709.177795 553.685852,700.856567 553.526306,692.540222 
	C553.471558,689.685303 554.425659,688.628784 557.247437,688.909973 
	C559.225708,689.107117 561.239258,688.916504 563.232849,689.000427 
	C571.676697,689.355957 576.037842,693.714050 575.986511,701.692139 
	C575.935852,709.566833 571.333801,714.533142 563.217651,714.419922 
	C558.720093,714.357117 557.370300,715.726257 557.783386,720.053528 
	C558.145264,723.845520 557.827759,727.700256 557.862732,731.526733 
	C557.876892,733.075256 557.481445,734.050903 555.668274,734.075073 
	C553.730103,734.100830 553.583923,732.921814 553.589600,731.473083 
	C553.606506,727.147095 553.596741,722.821045 553.597778,717.996033 
z"/>
<path fill="#818081" opacity="1.000000" stroke="none" 
	d="
M583.477844,717.996338 
	C583.477600,709.183105 583.570679,700.867310 583.424316,692.555664 
	C583.374451,689.722717 584.302124,688.751099 587.144043,688.896423 
	C591.290222,689.108521 595.455505,688.928223 599.612427,688.957397 
	C601.066956,688.967651 602.863281,688.680725 602.716614,691.033569 
	C602.596802,692.956360 601.074524,692.788208 599.749756,692.796509 
	C597.255554,692.812073 594.761230,692.799622 592.266968,692.806641 
	C591.435852,692.808960 590.357849,692.500549 589.812500,692.903076 
	C585.272339,696.254211 588.698425,701.052002 587.773132,705.103271 
	C587.292419,707.207703 588.255859,708.578369 590.745178,708.500061 
	C593.735107,708.406006 596.730652,708.473633 599.723572,708.493835 
	C600.959595,708.502136 602.093262,708.715088 602.198120,710.296265 
	C602.314514,712.050842 601.311829,712.649719 599.742615,712.650696 
	C596.915833,712.652527 594.084961,712.747864 591.263489,712.625488 
	C588.812866,712.519226 587.402283,713.261230 587.712341,715.971985 
	C587.749878,716.300049 587.695923,716.637512 587.714661,716.968872 
	C587.948425,721.094299 586.065247,726.197144 588.459106,729.086548 
	C590.809692,731.923767 595.985107,729.702026 599.897095,730.090454 
	C601.443298,730.244080 603.505920,729.555542 603.416321,732.275452 
	C603.335144,734.741455 601.406372,733.858521 600.082214,734.053162 
	C599.919312,734.077087 599.750000,734.061890 599.583801,734.058777 
	C594.443604,733.961487 587.766907,735.784668 584.583923,733.239197 
	C581.222534,730.551147 583.853577,723.578674 583.477844,717.996338 
z"/>
<path fill="#817F80" opacity="1.000000" stroke="none" 
	d="
M539.127991,713.437256 
	C537.472595,713.878723 536.186218,714.263306 534.872131,714.429565 
	C527.993164,715.299866 527.991211,715.280579 527.990051,722.416077 
	C527.989563,725.409973 527.980469,728.403809 527.987366,731.397705 
	C527.990540,732.776062 528.057190,734.074463 526.022278,734.057251 
	C524.362244,734.043213 523.603821,733.467468 523.607361,731.745239 
	C523.634949,718.272888 523.629333,704.800537 523.615540,691.328125 
	C523.613831,689.669556 524.341919,688.905823 526.020752,688.945679 
	C528.181824,688.997009 530.345825,688.924683 532.506897,688.975830 
	C539.720642,689.146484 543.926697,691.727661 545.509766,696.910217 
	C547.560974,703.625549 545.551758,709.083862 539.127991,713.437256 
z"/>
<path fill="#828081" opacity="1.000000" stroke="none" 
	d="
M587.905762,568.618042 
	C587.793030,574.531799 587.555603,580.014099 587.760071,585.479919 
	C587.893860,589.054932 585.897827,589.009277 583.363708,589.004639 
	C580.825134,589.000000 578.894531,589.024963 578.987061,585.455627 
	C579.202026,577.162476 578.954895,568.857971 579.120544,560.562561 
	C579.154907,558.841370 577.345581,555.811279 581.199707,555.666626 
	C584.039551,555.560059 587.591675,554.619385 587.007751,559.891113 
	C588.864929,558.425049 590.175110,557.127441 591.722656,556.247253 
	C593.121155,555.451904 595.032349,554.308472 596.376160,555.419617 
	C598.040039,556.795288 597.078369,559.162109 597.086609,561.088379 
	C597.097046,563.534058 595.017578,562.672485 593.734985,562.850586 
	C590.529785,563.295654 588.682983,565.096558 587.905762,568.618042 
z"/>
<path fill="#817F80" opacity="1.000000" stroke="none" 
	d="
M452.536621,725.323608 
	C448.699005,716.885071 448.212738,708.592041 451.300415,700.234497 
	C454.678619,691.090454 464.268677,686.419861 473.657166,689.059814 
	C475.507721,689.580139 476.805145,690.378845 476.333252,692.470764 
	C475.694794,695.301392 473.967346,693.251465 472.855194,693.004333 
	C463.820435,690.996704 456.951172,694.960632 454.622833,703.961670 
	C453.271790,709.184448 453.257965,714.529724 454.918915,719.735229 
	C457.600891,728.140564 464.163208,731.808044 472.792542,729.880310 
	C474.040771,729.601440 475.724701,727.977905 476.257019,730.670837 
	C476.690735,732.864868 475.215820,733.506897 473.437347,733.966370 
	C465.302765,736.067810 458.302490,733.276978 452.536621,725.323608 
z"/>
<path fill="#7C7A7B" opacity="1.000000" stroke="none" 
	d="
M701.598755,635.062500 
	C699.810303,641.497314 700.592773,647.687500 700.685791,653.806885 
	C700.744141,657.646484 699.098206,657.955688 695.954529,658.052795 
	C692.487427,658.159912 691.839233,656.842468 691.914490,653.723328 
	C692.111206,645.574646 691.908936,637.416992 692.033081,629.265442 
	C692.057983,627.631226 690.661987,625.136963 694.171448,624.786011 
	C698.244812,624.378601 698.833984,624.579407 700.143005,628.830750 
	C701.419922,627.724854 702.511536,626.495483 703.856140,625.686890 
	C705.533691,624.678101 707.635376,623.287292 709.390869,624.574707 
	C710.907837,625.687256 710.053467,628.014771 710.027832,629.800110 
	C709.988525,632.540588 707.667480,631.516846 706.264771,631.787903 
	C704.330322,632.161804 702.882446,633.074219 701.598755,635.062500 
z"/>
<path fill="#7E7C7D" opacity="1.000000" stroke="none" 
	d="
M491.663940,568.499390 
	C491.537903,574.420654 491.303009,579.898987 491.466431,585.365295 
	C491.569122,588.800659 489.753998,589.017883 487.116821,588.987732 
	C484.578674,588.958618 482.669006,589.015442 482.768341,585.447876 
	C482.994568,577.322937 482.726959,569.184631 482.925415,561.058167 
	C482.967896,559.319824 481.138824,556.375061 484.677826,555.905640 
	C487.381897,555.546997 490.506989,555.029480 490.976379,559.468628 
	C492.399139,558.382446 493.383484,557.493103 494.496124,556.813782 
	C496.183350,555.783630 498.108063,554.379211 500.004242,555.447876 
	C501.861298,556.494446 500.773346,558.774353 500.897217,560.503418 
	C501.118805,563.596313 498.589203,562.597656 497.023499,562.882202 
	C494.055695,563.421448 492.337097,565.145935 491.663940,568.499390 
z"/>
<path fill="#828081" opacity="1.000000" stroke="none" 
	d="
M667.751648,702.959229 
	C667.202515,707.218811 668.507080,709.112305 672.613464,708.522339 
	C674.241211,708.288513 675.934448,708.409790 677.590454,708.501770 
	C679.109253,708.586121 681.259155,707.831482 681.365662,710.450928 
	C681.471008,713.041992 679.419739,712.625793 677.814209,712.654480 
	C675.821472,712.690063 673.808411,712.831421 671.838196,712.615540 
	C668.433777,712.242493 667.557190,713.789856 667.698975,716.930847 
	C667.908569,721.572876 667.766174,726.231384 667.751160,730.882751 
	C667.746399,732.353577 668.017456,733.970093 665.703491,734.067505 
	C663.353760,734.166382 663.519470,732.579041 663.517456,731.076965 
	C663.499756,718.119446 663.489807,705.161987 663.487305,692.204468 
	C663.486938,690.489746 663.459595,688.847351 666.005188,688.910095 
	C670.487854,689.020630 674.975037,688.942810 679.460266,688.960999 
	C680.652283,688.965820 681.869629,689.011353 681.964355,690.652039 
	C682.072327,692.522888 680.845215,692.812317 679.376770,692.804199 
	C678.712280,692.800537 678.047791,692.803650 677.383362,692.810608 
	C667.758545,692.911255 667.758545,692.911499 667.751648,702.959229 
z"/>
<path fill="#817F80" opacity="1.000000" stroke="none" 
	d="
M716.340149,653.717651 
	C716.336548,644.926514 716.526367,636.595947 716.249817,628.280945 
	C716.115662,624.246521 718.448975,624.753235 721.008911,624.615723 
	C723.884644,624.461243 725.179443,625.159485 725.095154,628.422485 
	C724.875916,636.907532 724.994690,645.402039 725.037537,653.892517 
	C725.049133,656.179810 725.226929,658.340210 721.830566,657.990784 
	C719.236328,657.723816 715.675598,659.072693 716.340149,653.717651 
z"/>
<path fill="#7E7C7D" opacity="1.000000" stroke="none" 
	d="
M1009.945068,655.638062 
	C1008.127869,659.574524 1004.966797,657.951843 1002.553284,657.625610 
	C1000.421265,657.337463 1001.449890,654.827332 1001.430969,653.329224 
	C1001.327881,645.178528 1001.530762,637.021545 1001.300415,628.875977 
	C1001.204651,625.491028 1002.397461,624.624268 1005.593140,624.722412 
	C1008.502930,624.811890 1010.154358,625.078308 1010.044678,628.726196 
	C1009.779785,637.535706 1009.959778,646.358582 1009.945068,655.638062 
z"/>
<path fill="#7C7A7B" opacity="1.000000" stroke="none" 
	d="
M824.327148,625.394287 
	C832.106079,624.495667 832.106201,624.495667 832.104248,631.544922 
	C832.102173,639.196167 831.964722,646.850952 832.163879,654.496948 
	C832.243896,657.570312 830.928650,658.143250 828.314697,657.970947 
	C826.010742,657.819031 823.643127,658.467041 823.738342,654.658325 
	C823.979248,645.019958 823.923157,635.374084 824.327148,625.394287 
z"/>
<path fill="#7F7D7E" opacity="1.000000" stroke="none" 
	d="
M615.938538,688.550903 
	C615.936523,707.946106 615.956421,726.903564 615.884521,745.860779 
	C615.879150,747.284363 616.969666,749.643555 614.412781,749.881653 
	C611.666992,750.137390 612.493164,747.677368 612.488770,746.251404 
	C612.430786,727.294128 612.440918,708.336670 612.473755,689.379272 
	C612.476196,687.982666 611.903137,686.071472 613.893616,685.593994 
	C615.836853,685.127930 615.940796,686.703613 615.938538,688.550903 
z"/>
<path fill="#817F80" opacity="1.000000" stroke="none" 
	d="
M726.900513,709.993774 
	C726.903015,703.851501 726.873413,698.207581 726.929077,692.564514 
	C726.944153,691.038208 726.330872,688.956848 729.060669,689.019287 
	C731.407715,689.072937 730.973389,690.882080 730.975037,692.280273 
	C730.987366,702.737305 731.115967,713.197876 730.884705,723.650208 
	C730.716675,731.242004 726.815613,735.186646 720.908142,734.389038 
	C719.591370,734.211182 718.219788,734.123108 718.217285,732.197571 
	C718.214905,730.309998 719.244873,730.064636 720.801941,730.178528 
	C725.261902,730.504639 726.619751,727.605225 726.785645,723.934509 
	C726.987793,719.461243 726.876343,714.973816 726.900513,709.993774 
z"/>
<path fill="#828081" opacity="1.000000" stroke="none" 
	d="
M1002.531433,618.508789 
	C999.861267,611.546570 1001.195618,609.796631 1007.709534,610.429688 
	C1010.529663,610.703735 1010.393188,612.352844 1010.265564,614.186646 
	C1010.140869,615.977661 1011.152893,618.507385 1007.902222,618.635620 
	C1006.248108,618.700867 1004.588623,618.627991 1002.531433,618.508789 
z"/>
<path fill="#828081" opacity="1.000000" stroke="none" 
	d="
M725.077698,613.208252 
	C726.138123,618.627136 723.179138,618.765930 719.432617,618.752197 
	C714.738464,618.734924 716.508118,615.448486 716.201721,613.197693 
	C716.004150,611.746521 716.420837,610.268738 718.183350,610.601562 
	C720.535339,611.045837 723.905334,608.564819 725.077698,613.208252 
z"/>
<path fill="#7C7A7B" opacity="1.000000" stroke="none" 
	d="
M830.667236,618.522156 
	C827.914978,617.927429 824.231140,620.538696 823.534668,616.140991 
	C823.264954,614.437744 822.341125,611.719788 824.638367,610.888550 
	C826.836243,610.093262 830.232178,609.493469 831.601013,611.278442 
	C832.914124,612.990784 833.121948,616.186951 830.667236,618.522156 
z"/>
<path fill="#817F80" opacity="1.000000" stroke="none" 
	d="
M940.382385,618.532959 
	C942.085693,613.198547 944.686401,610.008911 951.075378,612.478149 
	C949.156921,615.012085 947.475769,617.610596 945.408630,619.853271 
	C943.459167,621.968262 941.514343,621.466187 940.382385,618.532959 
z"/>
<path fill="#14376D" opacity="1.000000" stroke="none" 
	d="
M644.253174,391.010132 
	C644.270264,390.828888 644.535645,390.713776 644.893860,390.753448 
	C644.825012,390.964233 644.663208,391.020264 644.253174,391.010132 
z"/>
<path fill="#14376D" opacity="1.000000" stroke="none" 
	d="
M592.286133,391.098938 
	C592.289001,390.959778 592.532227,390.789886 592.883179,390.774719 
	C592.990845,390.929474 592.526489,391.068207 592.286133,391.098938 
z"/>
<path fill="#F9FAFB" opacity="1.000000" stroke="none" 
	d="
M692.305298,462.045837 
	C692.304932,451.882477 692.304932,451.882385 701.848328,451.885193 
	C702.845520,451.885498 703.842957,451.873383 704.839844,451.889984 
	C720.473633,452.150177 728.443115,462.285797 725.077942,477.624603 
	C723.178345,486.283295 716.767456,491.069916 705.940247,491.913635 
	C692.305237,492.976135 692.305237,492.976135 692.305237,479.489716 
	C692.305237,473.838928 692.305237,468.188141 692.305298,462.045837 
z"/>
<path fill="#F7F9FA" opacity="1.000000" stroke="none" 
	d="
M716.632935,394.318054 
	C722.936951,400.723083 723.955750,408.003387 720.963196,415.745850 
	C718.038879,423.311676 711.598633,426.183411 703.997192,426.790192 
	C692.305969,427.723389 692.301025,427.659973 692.300903,415.871613 
	C692.300781,408.385284 692.472900,400.893127 692.222229,393.415192 
	C692.108398,390.019318 693.263794,389.192291 696.484436,389.293976 
	C703.477966,389.514893 710.547180,389.073761 716.632935,394.318054 
z"/>
<path fill="#FAFBFC" opacity="1.000000" stroke="none" 
	d="
M513.828064,409.420349 
	C513.913330,413.023071 513.983154,416.164215 513.281616,419.299927 
	C511.031006,429.359253 504.555328,434.766357 494.309601,434.997650 
	C483.051208,435.251801 483.050903,435.251770 483.051300,424.011566 
	C483.051666,414.356537 483.157959,404.699677 482.990234,395.047577 
	C482.939209,392.111359 483.547211,390.650452 486.794708,391.046600 
	C488.764069,391.286865 490.785156,391.079865 492.782013,391.121521 
	C505.822357,391.393433 511.471130,396.198456 513.828064,409.420349 
z"/>
<path fill="#F9F8F9" opacity="1.000000" stroke="none" 
	d="
M804.433594,639.302002 
	C807.173645,641.943604 807.471069,644.806030 806.161438,647.738342 
	C804.335449,651.826965 800.529053,652.117737 796.875732,651.578613 
	C793.353882,651.058899 795.466125,647.894592 794.917908,645.957458 
	C794.831543,645.652588 794.907349,645.301819 794.908020,644.972290 
	C794.925232,636.824341 796.001953,636.132141 804.433594,639.302002 
z"/>
<path fill="#F9F8F9" opacity="1.000000" stroke="none" 
	d="
M794.906494,627.776672 
	C794.905640,626.320068 794.702148,625.270630 794.946960,624.338989 
	C795.422852,622.528503 793.335754,619.563965 796.720459,619.070129 
	C800.080933,618.579834 803.634766,618.953430 805.394348,622.445984 
	C806.782715,625.201660 806.151917,627.990662 803.664062,630.071960 
	C801.447998,631.925842 798.767578,632.141907 796.118103,631.599182 
	C794.336853,631.234253 795.102722,629.449036 794.906494,627.776672 
z"/>
<path fill="#F9F8F9" opacity="1.000000" stroke="none" 
	d="
M524.557251,636.822632 
	C525.227173,632.991211 526.745361,630.171631 530.615173,630.275696 
	C534.642212,630.383972 536.304932,633.518127 536.843628,636.966980 
	C537.379211,640.395508 537.557434,643.940491 536.337341,647.330627 
	C535.279358,650.270508 533.298401,652.086365 530.010559,651.969116 
	C526.926392,651.859070 525.855103,649.541504 525.077637,647.096436 
	C524.052612,643.872803 523.968811,640.556335 524.557251,636.822632 
z"/>
<path fill="#F9F8F9" opacity="1.000000" stroke="none" 
	d="
M553.878784,561.802490 
	C555.684082,560.951721 557.130249,561.026672 558.543091,561.763855 
	C562.396606,563.774414 562.867065,567.444397 562.929382,571.166077 
	C562.999084,575.328796 563.244019,579.774963 558.925354,582.256287 
	C556.340332,583.741516 553.772156,583.327393 551.970703,580.597046 
	C548.798889,575.789673 549.585815,566.404663 553.878784,561.802490 
z"/>
<path fill="#F9F8F9" opacity="1.000000" stroke="none" 
	d="
M754.871460,561.107483 
	C761.571411,564.077209 763.470093,578.132507 757.931946,582.152344 
	C755.296753,584.065002 752.220154,584.206909 750.015564,581.166016 
	C747.429138,577.598389 747.671753,566.882080 750.259460,563.329346 
	C751.303467,561.895996 752.659607,561.054932 754.871460,561.107483 
z"/>
<path fill="#FAFBFC" opacity="1.000000" stroke="none" 
	d="
M976.267639,652.194580 
	C973.625122,651.517090 972.588074,649.806702 972.232300,647.765137 
	C971.513062,643.638245 971.422913,639.453979 972.222595,635.335571 
	C972.766602,632.534241 974.320007,630.367004 977.471985,630.141968 
	C980.618591,629.917358 982.469788,631.758179 983.365417,634.536438 
	C984.780212,638.924805 984.719482,643.437195 983.487305,647.813538 
	C982.580811,651.033508 980.262390,652.795166 976.267639,652.194580 
z"/>
<path fill="#F9F8F9" opacity="1.000000" stroke="none" 
	d="
M467.668945,555.627319 
	C468.060730,559.536682 467.679443,562.733093 463.898987,564.364807 
	C459.099884,566.436279 456.891998,565.026367 456.869690,559.869995 
	C456.865387,558.870911 456.627197,557.794861 456.916168,556.887878 
	C457.625824,554.660400 454.810059,550.951294 458.921265,550.296204 
	C462.705292,549.693359 466.281616,550.821716 467.668945,555.627319 
z"/>
<path fill="#F9FAFB" opacity="1.000000" stroke="none" 
	d="
M515.922363,563.033203 
	C521.047058,559.692078 524.500549,560.779724 526.063232,565.937439 
	C527.448669,570.510193 527.410217,575.105713 525.738159,579.615479 
	C524.863464,581.974670 523.204529,583.584229 520.600525,583.682129 
	C517.809937,583.787109 515.689148,582.370178 514.887085,579.742310 
	C513.205078,574.231140 512.830505,568.691406 515.922363,563.033203 
z"/>
<path fill="#F9F8F9" opacity="1.000000" stroke="none" 
	d="
M608.205078,578.959045 
	C609.809021,574.296021 614.877014,571.581909 618.771362,572.978638 
	C621.303955,573.887024 620.061462,576.042664 620.012939,577.616272 
	C619.910034,580.958618 618.187073,583.342529 614.748840,583.845337 
	C611.336060,584.344421 608.947632,582.937439 608.205078,578.959045 
z"/>
<path fill="#F9F8F9" opacity="1.000000" stroke="none" 
	d="
M741.816406,643.499634 
	C742.908813,642.964783 743.676758,642.427795 744.460388,642.403809 
	C746.884216,642.329590 750.301514,640.125244 751.423218,643.361267 
	C752.408997,646.205139 751.512268,649.755615 748.568665,651.832703 
	C746.142761,653.544495 743.349304,653.626892 741.202759,651.574890 
	C738.597839,649.084717 738.932068,646.256836 741.816406,643.499634 
z"/>
<path fill="#F9F8F9" opacity="1.000000" stroke="none" 
	d="
M1054.191895,645.103943 
	C1055.284424,643.496643 1056.603271,642.758301 1058.079468,642.493958 
	C1060.576660,642.046509 1063.925293,640.534363 1065.333252,642.954956 
	C1066.639648,645.201111 1065.544800,648.504883 1063.672119,650.796265 
	C1061.617310,653.310425 1058.801514,653.678101 1056.068481,652.232361 
	C1053.329712,650.783691 1052.768921,648.294556 1054.191895,645.103943 
z"/>
<path fill="#F9F8F9" opacity="1.000000" stroke="none" 
	d="
M859.593445,650.469238 
	C854.542053,654.022217 850.786377,652.873901 849.148621,647.514771 
	C847.859985,643.297852 847.861877,638.990784 849.243286,634.799683 
	C850.175293,631.971985 851.851746,629.823120 855.315735,629.963196 
	C858.476074,630.091003 860.157654,632.026794 860.920227,634.732849 
	C862.395325,639.967285 862.459106,645.181519 859.593445,650.469238 
z"/>
<path fill="#F9F8F9" opacity="1.000000" stroke="none" 
	d="
M937.829468,635.483765 
	C938.767151,631.589539 940.714722,629.342285 944.553101,629.900269 
	C947.410278,630.315674 948.614075,632.527039 949.031311,635.159180 
	C949.155579,635.943054 949.198853,636.970276 948.799744,637.563354 
	C947.598755,639.347839 938.945435,637.989746 937.829468,635.483765 
z"/>
<path fill="#F9F8F9" opacity="1.000000" stroke="none" 
	d="
M560.545288,637.253784 
	C560.971436,635.318054 561.265503,633.626282 562.089539,632.252502 
	C563.563477,629.795044 566.000305,629.194580 568.586182,630.150635 
	C571.275024,631.144775 571.955933,633.553223 572.084229,636.174622 
	C572.158936,637.701416 571.301331,638.281555 569.949280,638.190796 
	C566.851440,637.982666 563.686523,638.886108 560.545288,637.253784 
z"/>
<path fill="#F9F8F9" opacity="1.000000" stroke="none" 
	d="
M674.482666,650.286926 
	C670.187866,653.725464 666.231873,653.624817 664.539246,650.253174 
	C663.271240,647.727417 663.590942,645.256042 666.006165,643.613953 
	C668.887390,641.655090 672.723267,640.695068 675.337036,642.557983 
	C677.381165,644.014832 675.643555,647.480530 674.482666,650.286926 
z"/>
<path fill="#F9F8F9" opacity="1.000000" stroke="none" 
	d="
M705.904541,572.969910 
	C707.896606,578.372559 706.794678,582.116150 703.096497,583.459778 
	C699.930847,584.609741 696.985046,584.120544 695.627563,580.735779 
	C694.288635,577.397217 695.787048,575.005066 699.110474,573.711182 
	C701.170959,572.908997 703.306946,572.865967 705.904541,572.969910 
z"/>
<path fill="#F9F8F9" opacity="1.000000" stroke="none" 
	d="
M784.937866,566.479248 
	C785.945923,562.699829 787.794250,560.440308 791.637939,560.841980 
	C795.162476,561.210388 795.945862,563.941406 796.480225,566.783142 
	C796.594482,567.390686 796.685730,568.219055 796.376343,568.651367 
	C795.169434,570.337524 785.997314,568.893799 784.937866,566.479248 
z"/>
<path fill="#FCFCFC" opacity="1.000000" stroke="none" 
	d="
M491.875793,695.959717 
	C499.323303,689.764038 506.702148,691.784912 509.479950,700.604187 
	C511.884674,708.238953 511.750275,715.949585 509.106750,723.534607 
	C507.593628,727.876221 504.586273,730.292297 499.819885,730.436096 
	C495.045868,730.580139 491.661835,728.379150 490.165161,724.081482 
	C486.891418,714.681335 486.582245,705.290955 491.875793,695.959717 
z"/>
<path fill="#FCFCFC" opacity="1.000000" stroke="none" 
	d="
M705.075073,707.257812 
	C703.883545,707.966309 703.033813,708.586243 702.089661,708.812927 
	C695.241943,710.456665 693.969666,709.449585 693.967896,702.537659 
	C693.967773,701.871521 693.824097,701.166138 693.992981,700.546021 
	C694.681213,698.019226 692.107910,694.132690 695.535461,693.084717 
	C698.844910,692.072693 702.967590,692.095337 705.823303,695.154236 
	C708.379944,697.892639 708.420227,701.151672 706.935425,704.455811 
	C706.532471,705.352539 705.900269,706.146301 705.075073,707.257812 
z"/>
<path fill="#FAFBFC" opacity="1.000000" stroke="none" 
	d="
M562.746338,692.841431 
	C570.020447,693.810608 572.401672,697.207031 571.209412,704.277466 
	C570.452820,708.764709 565.243835,711.628784 559.924744,710.778992 
	C557.704163,710.424194 557.859070,709.059814 557.852295,707.573425 
	C557.836365,704.090088 558.067810,700.588440 557.784363,697.128174 
	C557.491028,693.546814 558.891113,692.270142 562.746338,692.841431 
z"/>
<path fill="#FAFBFC" opacity="1.000000" stroke="none" 
	d="
M540.125122,695.947144 
	C543.706360,705.103882 540.684998,710.261108 531.978699,710.786072 
	C529.165894,710.955688 527.526184,710.462524 527.928406,707.119141 
	C528.183655,704.997070 527.710022,702.776855 528.044983,700.677490 
	C528.457336,698.092651 526.217651,694.214539 529.387146,693.156433 
	C532.824158,692.008911 537.007263,692.241821 540.125122,695.947144 
z"/>
</svg>
