<svg version="1.1" id="Layer_1" xmlns="http://www.w3.org/2000/svg" xmlns:xlink="http://www.w3.org/1999/xlink" x="0px" y="0px"
	 width="100%" viewBox="0 0 200 252" enable-background="new 0 0 200 252" xml:space="preserve">
<path fill="#FCFCFC" opacity="1.000000" stroke="none" 
	d="
M102.000000,1.000000 
	C134.955933,1.000000 167.911880,1.000000 201.000000,1.000000 
	C201.000000,77.020844 201.000000,153.041763 200.684677,229.339844 
	C198.635147,220.670822 191.981018,214.879745 183.123367,214.607895 
	C173.891769,214.324570 166.232208,219.704742 163.903992,228.107803 
	C160.892776,238.975967 165.234482,247.228455 177.000000,253.000000 
	C170.312363,253.000000 163.624710,253.000000 156.586411,252.634537 
	C156.872406,251.786621 157.509064,251.304153 158.487625,250.562622 
	C153.384872,249.413544 153.332108,249.414108 153.284622,245.014084 
	C153.227142,239.685410 153.118896,234.350052 153.314789,229.027969 
	C153.492798,224.191879 151.033905,218.334427 157.825012,215.706573 
	C153.207611,215.706573 148.590225,215.706573 143.972839,215.706573 
	C149.274338,216.997498 148.653366,220.949524 148.640121,224.597427 
	C148.617737,230.759369 148.719452,236.923126 148.597794,243.082733 
	C148.537354,246.142258 149.779358,250.164642 144.413391,250.344757 
	C144.246078,250.350372 144.136490,252.076157 144.000000,253.000000 
	C142.933334,253.000000 141.866653,253.000000 140.499603,252.648285 
	C140.204422,251.534286 140.542740,250.430695 140.164398,250.061478 
	C135.261734,245.277084 130.257187,240.597076 125.278343,235.890732 
	C127.539177,234.430817 128.836426,234.333084 130.097275,234.064453 
	C135.039246,233.011597 138.107132,229.432709 138.143036,224.761368 
	C138.180298,219.914124 135.478546,216.274384 129.992203,215.861343 
	C121.785011,215.243469 113.507950,215.552078 105.260399,215.508499 
	C105.213615,215.508255 105.163681,216.104797 105.120422,216.423447 
	C109.843124,218.428497 109.850029,218.428497 109.855698,223.923828 
	C109.862732,230.735489 109.879333,237.547256 109.845650,244.358749 
	C109.832001,247.118378 110.504791,250.394867 105.882843,250.158432 
	C105.637657,250.145889 105.296486,252.009689 105.000000,253.000000 
	C102.958336,253.000000 100.916664,253.000000 98.598724,252.640656 
	C98.959747,251.812790 99.597061,251.344269 101.660660,249.827209 
	C95.626503,250.800812 95.615295,247.891800 95.633461,244.869385 
	C95.670471,238.712814 95.610489,232.555634 95.655502,226.399185 
	C95.685150,222.346451 94.350479,217.678894 99.993340,215.579361 
	C95.350914,215.579361 90.708488,215.579361 86.066063,215.579361 
	C92.235962,217.303818 90.724304,222.137024 90.767334,226.182053 
	C90.827522,231.839005 90.818779,237.497375 90.768295,243.154526 
	C90.740143,246.308563 91.836838,250.198654 86.513824,250.346664 
	C86.318100,250.352097 86.170189,252.076614 86.000000,253.000000 
	C82.638710,253.000000 79.277428,253.000000 75.657150,252.620865 
	C76.018196,250.978119 77.134735,249.729691 77.173904,248.448318 
	C77.361809,242.300369 77.029297,236.132339 77.329582,229.993332 
	C77.578156,224.911469 74.633736,218.648636 81.786743,215.645691 
	C77.747963,215.645691 73.709190,215.645691 69.673538,215.645691 
	C71.321686,217.589218 73.743813,219.122543 73.853577,220.806564 
	C74.300728,227.666962 74.039764,234.573517 74.039764,242.864731 
	C69.062210,234.637955 64.814476,227.631516 60.581158,220.616394 
	C56.953049,214.604156 53.607704,213.529785 44.776974,216.384415 
	C52.287617,217.435837 50.648369,222.402252 50.696545,226.566284 
	C50.758118,231.887680 50.824936,237.213654 50.668934,242.531174 
	C50.575333,245.721573 51.992188,249.953552 46.415501,250.335922 
	C46.217045,250.349533 46.135845,252.073288 46.000000,253.000000 
	C39.978848,253.000000 33.957695,253.000000 27.570570,252.658325 
	C33.652996,250.408493 36.549870,245.759033 36.902916,239.365341 
	C37.122925,235.380920 36.924355,231.375168 37.011292,227.381119 
	C37.104431,223.101791 35.393215,218.161758 40.993340,215.659271 
	C36.995129,215.659271 32.996914,215.659271 28.806030,215.659271 
	C30.691608,217.547272 33.388462,218.981232 33.460365,220.536560 
	C33.789650,227.659134 33.756554,234.849426 33.114445,241.948547 
	C32.666756,246.898117 27.186211,250.347046 22.085108,249.849106 
	C16.775881,249.330841 13.179182,245.763779 12.983063,240.430176 
	C12.793522,235.275452 13.001748,230.107025 12.863518,224.949203 
	C12.762641,221.185211 12.132841,217.308884 17.123341,215.765549 
	C12.445878,215.765549 7.768414,215.765549 3.090951,215.765549 
	C2.598287,216.303604 2.105624,216.841660 1.612961,217.379730 
	C8.703517,216.404526 7.889703,220.405792 7.868015,223.937943 
	C7.843479,227.933762 8.205748,231.965820 7.791577,235.918381 
	C6.913285,244.300201 10.180879,249.944748 18.000000,253.000000 
	C12.340075,253.000000 6.680151,253.000000 1.015170,253.000000 
	C1.010113,169.106689 1.010113,85.213379 1.010113,1.000000 
	C33.686863,1.000000 66.374771,1.000000 99.707687,1.323936 
	C88.945023,12.768029 77.537361,23.888187 66.397079,34.747696 
	C78.607231,46.909649 90.003586,58.261017 100.934204,69.148491 
	C112.098778,58.094231 123.537704,46.768333 135.269897,35.152069 
	C125.145599,25.108877 114.852737,14.931791 104.618568,4.696033 
	C103.566200,3.643503 102.864449,2.240420 102.000000,1.000000 
M19.500971,83.407684 
	C27.114779,83.407684 34.728588,83.407684 42.719421,83.407684 
	C42.719421,85.831718 42.719425,87.629242 42.719425,89.426758 
	C42.719418,112.921677 42.651550,136.417084 42.821201,159.910782 
	C42.838745,162.340500 43.727531,165.148560 45.137714,167.118408 
	C52.008698,176.716370 59.103115,186.160324 66.367531,195.464310 
	C67.454163,196.856033 69.853767,197.928223 71.657799,197.945938 
	C91.484970,198.140762 111.314972,198.034027 131.142807,198.188568 
	C133.996704,198.210800 135.613281,197.255402 137.208069,194.965805 
	C143.668823,185.690277 150.462357,176.645462 156.860718,167.328445 
	C158.246231,165.310913 159.161209,162.523438 159.178726,160.082596 
	C159.348511,136.422256 159.280624,112.760223 159.280563,89.098671 
	C159.280563,87.338928 159.280548,85.579185 159.280548,83.430832 
	C172.512436,83.430832 185.103561,83.430832 197.909515,83.430832 
	C197.909515,68.804947 197.909515,54.579491 197.909515,39.999897 
	C185.544312,39.999897 173.412750,39.909588 161.286194,40.115154 
	C159.784607,40.140610 158.036316,41.468998 156.864426,42.651535 
	C144.199448,55.431667 131.566391,68.245361 119.114304,81.231796 
	C117.723015,82.682777 116.856117,85.251640 116.839722,87.310791 
	C116.675232,107.971687 116.739693,128.634399 116.739685,149.296600 
	C116.739685,151.911530 116.739685,154.526459 116.739685,157.249084 
	C105.979874,157.249084 95.758766,157.249084 85.260475,157.249084 
	C85.260475,155.260178 85.260460,153.613205 85.260475,151.966232 
	C85.260674,130.470871 85.320160,108.975090 85.166267,87.480843 
	C85.151428,85.407951 84.378769,82.802025 82.999329,81.361412 
	C70.441254,68.246475 57.684338,55.321545 44.933861,42.392040 
	C43.953117,41.397530 42.588154,40.122978 41.386578,40.106800 
	C28.949028,39.939301 16.508352,40.003811 4.181366,40.003811 
	C4.181366,54.808472 4.181366,69.051132 4.181366,83.407707 
	C9.173505,83.407707 13.837277,83.407707 19.500971,83.407684 
z"/>
<path fill="#070707" opacity="1.000000" stroke="none" 
	d="
M101.666672,1.000000 
	C102.864449,2.240420 103.566200,3.643503 104.618568,4.696033 
	C114.852737,14.931791 125.145599,25.108877 135.269897,35.152069 
	C123.537704,46.768333 112.098778,58.094231 100.934204,69.148491 
	C90.003586,58.261017 78.607231,46.909649 66.397079,34.747696 
	C77.537361,23.888187 88.945023,12.768029 100.176346,1.323936 
	C100.444443,1.000000 100.888893,1.000000 101.666672,1.000000 
M87.386406,48.113136 
	C91.743675,52.643925 96.100945,57.174713 100.293045,61.533760 
	C109.341705,52.484676 117.884438,43.941547 126.054245,35.771358 
	C117.722023,27.471483 109.174759,18.957396 101.013260,10.827579 
	C92.698296,19.018211 84.124229,27.464073 75.128487,36.325302 
	C78.986725,40.022732 82.941704,43.812859 87.386406,48.113136 
z"/>
<path fill="#0D0D0D" opacity="1.000000" stroke="none" 
	d="
M105.460632,253.000000 
	C105.296486,252.009689 105.637657,250.145889 105.882843,250.158432 
	C110.504791,250.394867 109.832001,247.118378 109.845650,244.358749 
	C109.879333,237.547256 109.862732,230.735489 109.855698,223.923828 
	C109.850029,218.428497 109.843124,218.428497 105.120422,216.423447 
	C105.163681,216.104797 105.213615,215.508255 105.260399,215.508499 
	C113.507950,215.552078 121.785011,215.243469 129.992203,215.861343 
	C135.478546,216.274384 138.180298,219.914124 138.143036,224.761368 
	C138.107132,229.432709 135.039246,233.011597 130.097275,234.064453 
	C128.836426,234.333084 127.539177,234.430817 125.278343,235.890732 
	C130.257187,240.597076 135.261734,245.277084 140.164398,250.061478 
	C140.542740,250.430695 140.204422,251.534286 140.099609,252.648285 
	C137.958328,253.000000 135.916672,253.000000 133.386505,252.660477 
	C129.116592,247.311615 125.509834,242.154068 121.455292,237.376541 
	C120.108414,235.789490 117.611633,235.178345 115.640556,234.121048 
	C115.276627,234.583389 114.912697,235.045731 114.548767,235.508072 
	C116.478355,240.645996 111.079704,247.649765 119.081558,251.257675 
	C118.379486,251.845337 117.689743,252.422668 117.000000,253.000000 
	C113.307091,253.000000 109.614182,253.000000 105.460632,253.000000 
M131.482010,228.959778 
	C133.746429,222.880310 131.908661,218.678528 126.468445,218.188583 
	C122.716072,217.850616 118.908669,218.123703 115.045792,218.123703 
	C115.045792,222.915192 115.045792,227.297836 115.045792,233.129929 
	C120.716057,231.868393 125.857285,230.724564 131.482010,228.959778 
z"/>
<path fill="#0D0D0D" opacity="1.000000" stroke="none" 
	d="
M46.458069,253.000000 
	C46.135845,252.073288 46.217045,250.349533 46.415501,250.335922 
	C51.992188,249.953552 50.575333,245.721573 50.668934,242.531174 
	C50.824936,237.213654 50.758118,231.887680 50.696545,226.566284 
	C50.648369,222.402252 52.287617,217.435837 44.776974,216.384415 
	C53.607704,213.529785 56.953049,214.604156 60.581158,220.616394 
	C64.814476,227.631516 69.062210,234.637955 74.039764,242.864731 
	C74.039764,234.573517 74.300728,227.666962 73.853577,220.806564 
	C73.743813,219.122543 71.321686,217.589218 69.673538,215.645691 
	C73.709190,215.645691 77.747963,215.645691 81.786743,215.645691 
	C74.633736,218.648636 77.578156,224.911469 77.329582,229.993332 
	C77.029297,236.132339 77.361809,242.300369 77.173904,248.448318 
	C77.134735,249.729691 76.018196,250.978119 75.199081,252.620865 
	C75.000000,253.000000 74.500000,253.000000 74.214615,252.647095 
	C67.524605,241.619827 61.119984,230.945465 54.715366,220.271118 
	C53.896137,228.364792 53.851753,236.130997 53.920799,243.896194 
	C53.944195,246.527359 52.879932,249.927948 57.393639,250.122879 
	C57.262424,251.081924 57.131210,252.040955 57.000000,253.000000 
	C53.638714,253.000000 50.277424,253.000000 46.458069,253.000000 
z"/>
<path fill="#0B0B0B" opacity="1.000000" stroke="none" 
	d="
M177.449982,253.000000 
	C165.234482,247.228455 160.892776,238.975967 163.903992,228.107803 
	C166.232208,219.704742 173.891769,214.324570 183.123367,214.607895 
	C191.981018,214.879745 198.635147,220.670822 200.684677,229.808502 
	C201.000000,232.700012 201.000000,235.400024 200.670578,238.682953 
	C198.235199,246.636551 193.101318,250.845474 186.000000,253.000000 
	C183.299988,253.000000 180.599976,253.000000 177.449982,253.000000 
M194.150513,240.258652 
	C193.994278,235.208557 194.473007,230.031418 193.495392,225.145676 
	C192.596558,220.653687 188.895309,217.885056 184.124832,217.425522 
	C179.387543,216.969147 174.581955,218.043640 172.458176,222.405823 
	C170.449295,226.532043 169.331253,231.431702 169.167633,236.039001 
	C168.905151,243.430695 173.416138,248.879562 179.408585,250.027679 
	C186.238205,251.336212 190.347443,248.800064 194.150513,240.258652 
z"/>
<path fill="#0B0B0B" opacity="1.000000" stroke="none" 
	d="
M18.449980,253.000000 
	C10.180879,249.944748 6.913285,244.300201 7.791577,235.918381 
	C8.205748,231.965820 7.843479,227.933762 7.868015,223.937943 
	C7.889703,220.405792 8.703517,216.404526 1.612961,217.379730 
	C2.105624,216.841660 2.598287,216.303604 3.090951,215.765549 
	C7.768414,215.765549 12.445878,215.765549 17.123341,215.765549 
	C12.132841,217.308884 12.762641,221.185211 12.863518,224.949203 
	C13.001748,230.107025 12.793522,235.275452 12.983063,240.430176 
	C13.179182,245.763779 16.775881,249.330841 22.085108,249.849106 
	C27.186211,250.347046 32.666756,246.898117 33.114445,241.948547 
	C33.756554,234.849426 33.789650,227.659134 33.460365,220.536560 
	C33.388462,218.981232 30.691608,217.547272 28.806030,215.659271 
	C32.996914,215.659271 36.995129,215.659271 40.993340,215.659271 
	C35.393215,218.161758 37.104431,223.101791 37.011292,227.381119 
	C36.924355,231.375168 37.122925,235.380920 36.902916,239.365341 
	C36.549870,245.759033 33.652996,250.408493 27.102299,252.658325 
	C24.299986,253.000000 21.599974,253.000000 18.449980,253.000000 
z"/>
<path fill="#FBFBFB" opacity="1.000000" stroke="none" 
	d="
M57.467606,253.000000 
	C57.131210,252.040955 57.262424,251.081924 57.393639,250.122879 
	C52.879932,249.927948 53.944195,246.527359 53.920799,243.896194 
	C53.851753,236.130997 53.896137,228.364792 54.715366,220.271118 
	C61.119984,230.945465 67.524605,241.619827 73.964615,252.647095 
	C68.645073,253.000000 63.290142,253.000000 57.467606,253.000000 
z"/>
<path fill="#121212" opacity="1.000000" stroke="none" 
	d="
M86.460632,253.000000 
	C86.170189,252.076614 86.318100,250.352097 86.513824,250.346664 
	C91.836838,250.198654 90.740143,246.308563 90.768295,243.154526 
	C90.818779,237.497375 90.827522,231.839005 90.767334,226.182053 
	C90.724304,222.137024 92.235962,217.303818 86.066063,215.579361 
	C90.708488,215.579361 95.350914,215.579361 99.993340,215.579361 
	C94.350479,217.678894 95.685150,222.346451 95.655502,226.399185 
	C95.610489,232.555634 95.670471,238.712814 95.633461,244.869385 
	C95.615295,247.891800 95.626503,250.800812 101.660660,249.827209 
	C99.597061,251.344269 98.959747,251.812790 98.161224,252.640656 
	C94.307091,253.000000 90.614182,253.000000 86.460632,253.000000 
z"/>
<path fill="#060607" opacity="1.000000" stroke="none" 
	d="
M144.460632,253.000000 
	C144.136490,252.076157 144.246078,250.350372 144.413391,250.344757 
	C149.779358,250.164642 148.537354,246.142258 148.597794,243.082733 
	C148.719452,236.923126 148.617737,230.759369 148.640121,224.597427 
	C148.653366,220.949524 149.274338,216.997498 143.972839,215.706573 
	C148.590225,215.706573 153.207611,215.706573 157.825012,215.706573 
	C151.033905,218.334427 153.492798,224.191879 153.314789,229.027969 
	C153.118896,234.350052 153.227142,239.685410 153.284622,245.014084 
	C153.332108,249.414108 153.384872,249.413544 158.487625,250.562622 
	C157.509064,251.304153 156.872406,251.786621 156.117874,252.634537 
	C152.307098,253.000000 148.614182,253.000000 144.460632,253.000000 
z"/>
<path fill="#FAFAFA" opacity="1.000000" stroke="none" 
	d="
M117.466858,253.000000 
	C117.689743,252.422668 118.379486,251.845337 119.081558,251.257675 
	C111.079704,247.649765 116.478355,240.645996 114.548767,235.508072 
	C114.912697,235.045731 115.276627,234.583389 115.640556,234.121048 
	C117.611633,235.178345 120.108414,235.789490 121.455292,237.376541 
	C125.509834,242.154068 129.116592,247.311615 132.949005,252.660477 
	C127.977905,253.000000 122.955818,253.000000 117.466858,253.000000 
z"/>
<path fill="#F5F5F5" opacity="1.000000" stroke="none" 
	d="
M186.472656,253.000000 
	C193.101318,250.845474 198.235199,246.636551 200.670578,239.132935 
	C201.000000,243.593750 201.000000,248.187500 201.000000,253.000000 
	C196.316574,253.000000 191.630936,253.000000 186.472656,253.000000 
z"/>
<path fill="#030303" opacity="1.000000" stroke="none" 
	d="
M19.001011,83.407700 
	C13.837277,83.407707 9.173505,83.407707 4.181366,83.407707 
	C4.181366,69.051132 4.181366,54.808472 4.181366,40.003811 
	C16.508352,40.003811 28.949028,39.939301 41.386578,40.106800 
	C42.588154,40.122978 43.953117,41.397530 44.933861,42.392040 
	C57.684338,55.321545 70.441254,68.246475 82.999329,81.361412 
	C84.378769,82.802025 85.151428,85.407951 85.166267,87.480843 
	C85.320160,108.975090 85.260674,130.470871 85.260475,151.966232 
	C85.260460,153.613205 85.260475,155.260178 85.260475,157.249084 
	C95.758766,157.249084 105.979874,157.249084 116.739685,157.249084 
	C116.739685,154.526459 116.739685,151.911530 116.739685,149.296600 
	C116.739693,128.634399 116.675232,107.971687 116.839722,87.310791 
	C116.856117,85.251640 117.723015,82.682777 119.114304,81.231796 
	C131.566391,68.245361 144.199448,55.431667 156.864426,42.651535 
	C158.036316,41.468998 159.784607,40.140610 161.286194,40.115154 
	C173.412750,39.909588 185.544312,39.999897 197.909515,39.999897 
	C197.909515,54.579491 197.909515,68.804947 197.909515,83.430832 
	C185.103561,83.430832 172.512436,83.430832 159.280548,83.430832 
	C159.280548,85.579185 159.280563,87.338928 159.280563,89.098671 
	C159.280624,112.760223 159.348511,136.422256 159.178726,160.082596 
	C159.161209,162.523438 158.246231,165.310913 156.860718,167.328445 
	C150.462357,176.645462 143.668823,185.690277 137.208069,194.965805 
	C135.613281,197.255402 133.996704,198.210800 131.142807,198.188568 
	C111.314972,198.034027 91.484970,198.140762 71.657799,197.945938 
	C69.853767,197.928223 67.454163,196.856033 66.367531,195.464310 
	C59.103115,186.160324 52.008698,176.716370 45.137714,167.118408 
	C43.727531,165.148560 42.838745,162.340500 42.821201,159.910782 
	C42.651550,136.417084 42.719418,112.921677 42.719425,89.426758 
	C42.719425,87.629242 42.719421,85.831718 42.719421,83.407684 
	C34.728588,83.407684 27.114779,83.407684 19.001011,83.407700 
M138.233963,71.732430 
	C134.263184,75.771919 130.389191,79.913361 126.283905,83.811180 
	C123.964035,86.013802 122.969337,88.313148 122.992325,91.614143 
	C123.148987,114.105492 123.074524,136.598450 123.074631,159.090881 
	C123.074638,160.674454 123.074623,162.258041 123.074623,163.729095 
	C108.001045,163.729095 93.583755,163.729095 78.926826,163.729095 
	C78.926826,139.322174 78.993439,115.188499 78.813789,91.056664 
	C78.797562,88.875992 77.742371,86.180428 76.240364,84.616486 
	C64.702530,72.602890 52.950291,60.794708 41.210423,48.976578 
	C40.214413,47.973934 38.838326,46.701721 37.614784,46.675499 
	C28.535654,46.480873 19.450445,46.569981 10.296412,46.569981 
	C10.296412,56.992260 10.296412,66.752480 10.296412,76.958832 
	C23.229864,76.958832 35.963177,76.958832 49.046799,76.958832 
	C49.046799,79.028107 49.046799,80.654907 49.046799,82.281708 
	C49.046799,107.273300 48.991245,132.265228 49.140369,157.255920 
	C49.153950,159.532288 49.971725,162.162613 51.285202,164.010910 
	C57.256336,172.413452 63.428043,180.682022 69.807259,188.778427 
	C71.012604,190.308212 73.477142,191.672363 75.379410,191.697586 
	C92.703926,191.927185 110.033684,191.932709 127.358513,191.723160 
	C129.261230,191.700134 131.770767,190.393661 132.928696,188.869461 
	C138.959747,180.930649 144.781219,172.820953 150.356430,164.555420 
	C151.809311,162.401443 152.824631,159.481308 152.843628,156.904251 
	C153.026505,132.080612 152.953217,107.255089 152.953217,82.430107 
	C152.953217,80.669655 152.953217,78.909203 152.953217,76.708694 
	C166.290039,76.708694 179.022125,76.708694 191.671906,76.708694 
	C191.671906,66.480560 191.671906,56.704136 191.671906,46.553623 
	C183.300980,46.553623 175.156265,46.337151 167.036270,46.689842 
	C164.699356,46.791344 161.919754,47.995773 160.224335,49.616402 
	C152.881897,56.634933 145.865784,63.994839 138.233963,71.732430 
z"/>
<path fill="#FDFDFD" opacity="1.000000" stroke="none" 
	d="
M87.141541,47.858063 
	C82.941704,43.812859 78.986725,40.022732 75.128487,36.325302 
	C84.124229,27.464073 92.698296,19.018211 101.013260,10.827579 
	C109.174759,18.957396 117.722023,27.471483 126.054245,35.771358 
	C117.884438,43.941547 109.341705,52.484676 100.293045,61.533760 
	C96.100945,57.174713 91.743675,52.643925 87.141541,47.858063 
z"/>
<path fill="#FBFBFB" opacity="1.000000" stroke="none" 
	d="
M131.240265,229.270264 
	C125.857285,230.724564 120.716057,231.868393 115.045792,233.129929 
	C115.045792,227.297836 115.045792,222.915192 115.045792,218.123703 
	C118.908669,218.123703 122.716072,217.850616 126.468445,218.188583 
	C131.908661,218.678528 133.746429,222.880310 131.240265,229.270264 
z"/>
<path fill="#FBFBFB" opacity="1.000000" stroke="none" 
	d="
M194.054108,240.653473 
	C190.347443,248.800064 186.238205,251.336212 179.408585,250.027679 
	C173.416138,248.879562 168.905151,243.430695 169.167633,236.039001 
	C169.331253,231.431702 170.449295,226.532043 172.458176,222.405823 
	C174.581955,218.043640 179.387543,216.969147 184.124832,217.425522 
	C188.895309,217.885056 192.596558,220.653687 193.495392,225.145676 
	C194.473007,230.031418 193.994278,235.208557 194.054108,240.653473 
z"/>
<path fill="#FDFDFD" opacity="1.000000" stroke="none" 
	d="
M138.482483,71.481506 
	C145.865784,63.994839 152.881897,56.634933 160.224335,49.616402 
	C161.919754,47.995773 164.699356,46.791344 167.036270,46.689842 
	C175.156265,46.337151 183.300980,46.553623 191.671906,46.553623 
	C191.671906,56.704136 191.671906,66.480560 191.671906,76.708694 
	C179.022125,76.708694 166.290039,76.708694 152.953217,76.708694 
	C152.953217,78.909203 152.953217,80.669655 152.953217,82.430107 
	C152.953217,107.255089 153.026505,132.080612 152.843628,156.904251 
	C152.824631,159.481308 151.809311,162.401443 150.356430,164.555420 
	C144.781219,172.820953 138.959747,180.930649 132.928696,188.869461 
	C131.770767,190.393661 129.261230,191.700134 127.358513,191.723160 
	C110.033684,191.932709 92.703926,191.927185 75.379410,191.697586 
	C73.477142,191.672363 71.012604,190.308212 69.807259,188.778427 
	C63.428043,180.682022 57.256336,172.413452 51.285202,164.010910 
	C49.971725,162.162613 49.153950,159.532288 49.140369,157.255920 
	C48.991245,132.265228 49.046799,107.273300 49.046799,82.281708 
	C49.046799,80.654907 49.046799,79.028107 49.046799,76.958832 
	C35.963177,76.958832 23.229864,76.958832 10.296412,76.958832 
	C10.296412,66.752480 10.296412,56.992260 10.296412,46.569981 
	C19.450445,46.569981 28.535654,46.480873 37.614784,46.675499 
	C38.838326,46.701721 40.214413,47.973934 41.210423,48.976578 
	C52.950291,60.794708 64.702530,72.602890 76.240364,84.616486 
	C77.742371,86.180428 78.797562,88.875992 78.813789,91.056664 
	C78.993439,115.188499 78.926826,139.322174 78.926826,163.729095 
	C93.583755,163.729095 108.001045,163.729095 123.074623,163.729095 
	C123.074623,162.258041 123.074638,160.674454 123.074631,159.090881 
	C123.074524,136.598450 123.148987,114.105492 122.992325,91.614143 
	C122.969337,88.313148 123.964035,86.013802 126.283905,83.811180 
	C130.389191,79.913361 134.263184,75.771919 138.482483,71.481506 
z"/>
</svg>